<?xml version="1.0" encoding="UTF-8" standalone="no"?>
<!DOCTYPE svg PUBLIC "-//W3C//DTD SVG 1.1//EN"
 "http://www.w3.org/Graphics/SVG/1.1/DTD/svg11.dtd">
<!-- Generated by graphviz version 5.0.0 (20220707.2145)
 -->
<!-- Title: G Pages: 1 -->
<svg width="282pt" height="399pt"
 viewBox="0.00 0.00 282.16 399.20" xmlns="http://www.w3.org/2000/svg" xmlns:xlink="http://www.w3.org/1999/xlink">
<g id="graph0" class="graph" transform="scale(1 1) rotate(0) translate(4 395.2)">
<title>G</title>
<polygon fill="white" stroke="transparent" points="-4,4 -4,-395.2 278.16,-395.2 278.16,4 -4,4"/>
<!-- vendor&#45;available -->
<g id="node1" class="node">
<title>vendor&#45;available</title>
<ellipse fill="none" stroke="black" cx="48.32" cy="-373.2" rx="27" ry="18"/>
<text text-anchor="middle" x="48.32" y="-369" font-family="Times,serif" font-size="14.00">V1</text>
</g>
<!-- take&#45;home -->
<g id="node9" class="node">
<title>take&#45;home</title>
<polygon fill="none" stroke="black" points="154.51,-302.4 38.12,-302.4 38.12,-266.4 154.51,-266.4 154.51,-302.4"/>
<text text-anchor="middle" x="96.32" y="-280.2" font-family="Times,serif" font-size="14.00">item to take home</text>
</g>
<!-- vendor&#45;available&#45;&gt;take&#45;home -->
<g id="edge1" class="edge">
<title>vendor&#45;available&#45;&gt;take&#45;home</title>
<path fill="none" stroke="black" d="M57.35,-355.87C64.25,-343.39 73.91,-325.92 81.89,-311.5"/>
<polygon fill="black" stroke="black" points="85.06,-312.99 86.84,-302.54 78.93,-309.6 85.06,-312.99"/>
<text text-anchor="middle" x="80.82" y="-324.6" font-family="Times,serif" font-size="14.00">y</text>
</g>
<!-- client&#45;wants&#45;item -->
<g id="node2" class="node">
<title>client&#45;wants&#45;item</title>
<ellipse fill="none" stroke="black" cx="145.32" cy="-373.2" rx="51.56" ry="18"/>
<text text-anchor="middle" x="145.32" y="-369" font-family="Times,serif" font-size="14.00">Alice shirt</text>
</g>
<!-- client&#45;wants&#45;item&#45;&gt;take&#45;home -->
<g id="edge2" class="edge">
<title>client&#45;wants&#45;item&#45;&gt;take&#45;home</title>
<path fill="none" stroke="black" d="M135.87,-355.46C128.84,-343.02 119.12,-325.79 111.07,-311.54"/>
<polygon fill="black" stroke="black" points="114.04,-309.67 106.07,-302.68 107.94,-313.11 114.04,-309.67"/>
<text text-anchor="middle" x="139.09" y="-324.6" font-family="Times,serif" font-size="14.00">(x, z)</text>
</g>
<!-- cashier&#45;available&#45;1 -->
<g id="node3" class="node">
<title>cashier&#45;available&#45;1</title>
<ellipse fill="none" stroke="black" cx="205.32" cy="-195.6" rx="27" ry="18"/>
<text text-anchor="middle" x="205.32" y="-191.4" font-family="Times,serif" font-size="14.00">C1</text>
</g>
<!-- client&#45;pay -->
<g id="node11" class="node">
<title>client&#45;pay</title>
<polygon fill="none" stroke="black" points="274,-124.8 136.64,-124.8 136.64,-88.8 274,-88.8 274,-124.8"/>
<text text-anchor="middle" x="205.32" y="-102.6" font-family="Times,serif" font-size="14.00">client pays take home</text>
</g>
<!-- cashier&#45;available&#45;1&#45;&gt;client&#45;pay -->
<g id="edge8" class="edge">
<title>cashier&#45;available&#45;1&#45;&gt;client&#45;pay</title>
<path fill="none" stroke="black" d="M205.32,-177.45C205.32,-165.32 205.32,-148.82 205.32,-134.92"/>
<polygon fill="black" stroke="black" points="208.82,-134.91 205.32,-124.91 201.82,-134.91 208.82,-134.91"/>
<text text-anchor="middle" x="208.42" y="-147" font-family="Times,serif" font-size="14.00">c</text>
</g>
<!-- vendor&#45;with&#45;item -->
<g id="node4" class="node">
<title>vendor&#45;with&#45;item</title>
<ellipse fill="none" stroke="black" cx="61.32" cy="-195.6" rx="27" ry="18"/>
</g>
<!-- vendor&#45;pack -->
<g id="node10" class="node">
<title>vendor&#45;pack</title>
<polygon fill="none" stroke="black" points="118.45,-124.8 0.18,-124.8 0.18,-88.8 118.45,-88.8 118.45,-124.8"/>
<text text-anchor="middle" x="59.32" y="-102.6" font-family="Times,serif" font-size="14.00">vendor packs item</text>
</g>
<!-- vendor&#45;with&#45;item&#45;&gt;vendor&#45;pack -->
<g id="edge5" class="edge">
<title>vendor&#45;with&#45;item&#45;&gt;vendor&#45;pack</title>
<path fill="none" stroke="black" d="M60.92,-177.45C60.64,-165.32 60.26,-148.82 59.94,-134.92"/>
<polygon fill="black" stroke="black" points="63.44,-134.83 59.71,-124.91 56.44,-134.99 63.44,-134.83"/>
<text text-anchor="middle" x="76.09" y="-147" font-family="Times,serif" font-size="14.00">(y, z)</text>
</g>
<!-- client&#45;with&#45;money -->
<g id="node5" class="node">
<title>client&#45;with&#45;money</title>
<ellipse fill="none" stroke="black" cx="133.32" cy="-195.6" rx="27" ry="18"/>
</g>
<!-- client&#45;with&#45;money&#45;&gt;client&#45;pay -->
<g id="edge7" class="edge">
<title>client&#45;with&#45;money&#45;&gt;client&#45;pay</title>
<path fill="none" stroke="black" d="M143.95,-178.74C151.2,-168.24 161.22,-154.35 170.99,-142.8 173.92,-139.34 177.11,-135.81 180.33,-132.39"/>
<polygon fill="black" stroke="black" points="182.91,-134.76 187.33,-125.13 177.87,-129.89 182.91,-134.76"/>
<text text-anchor="middle" x="185.48" y="-147" font-family="Times,serif" font-size="14.00">(x, k)</text>
</g>
<!-- vendor&#45;with&#45;packed&#45;item -->
<g id="node6" class="node">
<title>vendor&#45;with&#45;packed&#45;item</title>
<ellipse fill="none" stroke="black" cx="59.32" cy="-18" rx="27" ry="18"/>
</g>
<!-- client&#45;with&#45;receipt -->
<g id="node7" class="node">
<title>client&#45;with&#45;receipt</title>
<ellipse fill="none" stroke="black" cx="169.32" cy="-18" rx="27" ry="18"/>
</g>
<!-- cashier&#45;available&#45;2 -->
<g id="node8" class="node">
<title>cashier&#45;available&#45;2</title>
<ellipse fill="none" stroke="black" cx="241.32" cy="-18" rx="27" ry="18"/>
</g>
<!-- take&#45;home&#45;&gt;vendor&#45;with&#45;item -->
<g id="edge3" class="edge">
<title>take&#45;home&#45;&gt;vendor&#45;with&#45;item</title>
<path fill="none" stroke="black" d="M85.8,-266.33C82.63,-260.75 79.32,-254.43 76.78,-248.4 73.44,-240.5 70.52,-231.63 68.13,-223.5"/>
<polygon fill="black" stroke="black" points="71.47,-222.42 65.42,-213.72 64.72,-224.3 71.47,-222.42"/>
<text text-anchor="middle" x="92.09" y="-235.8" font-family="Times,serif" font-size="14.00">(y, z)</text>
</g>
<!-- take&#45;home&#45;&gt;client&#45;with&#45;money -->
<g id="edge4" class="edge">
<title>take&#45;home&#45;&gt;client&#45;with&#45;money</title>
<path fill="none" stroke="black" d="M103.63,-266.25C108.97,-253.73 116.3,-236.53 122.34,-222.36"/>
<polygon fill="black" stroke="black" points="125.57,-223.7 126.27,-213.12 119.13,-220.95 125.57,-223.7"/>
<text text-anchor="middle" x="132.48" y="-235.8" font-family="Times,serif" font-size="14.00">(x, k)</text>
</g>
<!-- vendor&#45;pack&#45;&gt;vendor&#45;with&#45;packed&#45;item -->
<g id="edge6" class="edge">
<title>vendor&#45;pack&#45;&gt;vendor&#45;with&#45;packed&#45;item</title>
<path fill="none" stroke="black" d="M59.32,-88.65C59.32,-76.52 59.32,-60.02 59.32,-46.12"/>
<polygon fill="black" stroke="black" points="62.82,-46.11 59.32,-36.11 55.82,-46.11 62.82,-46.11"/>
<text text-anchor="middle" x="72.92" y="-58.2" font-family="Times,serif" font-size="14.00">(y, l)</text>
</g>
<!-- client&#45;pay&#45;&gt;client&#45;with&#45;receipt -->
<g id="edge9" class="edge">
<title>client&#45;pay&#45;&gt;client&#45;with&#45;receipt</title>
<path fill="none" stroke="black" d="M194.44,-88.76C191.15,-83.18 187.73,-76.85 185.1,-70.8 181.68,-62.92 178.69,-54.06 176.26,-45.93"/>
<polygon fill="black" stroke="black" points="179.58,-44.81 173.49,-36.15 172.84,-46.72 179.58,-44.81"/>
<text text-anchor="middle" x="201.42" y="-58.2" font-family="Times,serif" font-size="14.00">(x, m)</text>
</g>
<!-- client&#45;pay&#45;&gt;cashier&#45;available&#45;2 -->
<g id="edge10" class="edge">
<title>client&#45;pay&#45;&gt;cashier&#45;available&#45;2</title>
<path fill="none" stroke="black" d="M212.43,-88.65C217.57,-76.25 224.62,-59.26 230.46,-45.17"/>
<polygon fill="black" stroke="black" points="233.87,-46.1 234.46,-35.52 227.4,-43.42 233.87,-46.1"/>
<text text-anchor="middle" x="229.42" y="-58.2" font-family="Times,serif" font-size="14.00">c</text>
</g>
</g>
</svg>
