<?xml version="1.0" encoding="UTF-8" standalone="no"?>
<!DOCTYPE svg PUBLIC "-//W3C//DTD SVG 1.1//EN"
 "http://www.w3.org/Graphics/SVG/1.1/DTD/svg11.dtd">
<!-- Generated by graphviz version 5.0.0 (20220707.2145)
 -->
<!-- Title: G Pages: 1 -->
<svg width="288pt" height="222pt"
 viewBox="0.00 0.00 287.97 221.60" xmlns="http://www.w3.org/2000/svg" xmlns:xlink="http://www.w3.org/1999/xlink">
<g id="graph0" class="graph" transform="scale(1 1) rotate(0) translate(4 217.6)">
<title>G</title>
<polygon fill="white" stroke="transparent" points="-4,4 -4,-217.6 283.97,-217.6 283.97,4 -4,4"/>
<!-- vendor&#45;available -->
<g id="node1" class="node">
<title>vendor&#45;available</title>
<ellipse fill="none" stroke="black" cx="37.06" cy="-195.6" rx="37.11" ry="18"/>
<text text-anchor="middle" x="37.06" y="-191.4" font-family="Times,serif" font-size="14.00">V1 V2</text>
</g>
<!-- take&#45;home -->
<g id="node5" class="node">
<title>take&#45;home</title>
<polygon fill="none" stroke="black" points="169.25,-124.8 52.86,-124.8 52.86,-88.8 169.25,-88.8 169.25,-124.8"/>
<text text-anchor="middle" x="111.06" y="-102.6" font-family="Times,serif" font-size="14.00">item to take home</text>
</g>
<!-- vendor&#45;available&#45;&gt;take&#45;home -->
<g id="edge1" class="edge">
<title>vendor&#45;available&#45;&gt;take&#45;home</title>
<path fill="none" stroke="black" d="M50.63,-178.68C61.61,-165.8 77.28,-147.42 89.9,-132.61"/>
<polygon fill="black" stroke="black" points="92.73,-134.69 96.56,-124.81 87.41,-130.15 92.73,-134.69"/>
<text text-anchor="middle" x="84.56" y="-147" font-family="Times,serif" font-size="14.00">y</text>
</g>
<!-- client&#45;with&#45;item -->
<g id="node2" class="node">
<title>client&#45;with&#45;item</title>
<ellipse fill="none" stroke="black" cx="186.06" cy="-195.6" rx="93.83" ry="18"/>
<text text-anchor="middle" x="186.06" y="-191.4" font-family="Times,serif" font-size="14.00">Alice,shirt Bob,shoes</text>
</g>
<!-- client&#45;with&#45;item&#45;&gt;take&#45;home -->
<g id="edge2" class="edge">
<title>client&#45;with&#45;item&#45;&gt;take&#45;home</title>
<path fill="none" stroke="black" d="M171.24,-177.45C160.14,-164.61 144.81,-146.86 132.39,-132.49"/>
<polygon fill="black" stroke="black" points="135.03,-130.19 125.84,-124.91 129.73,-134.77 135.03,-130.19"/>
<text text-anchor="middle" x="169.82" y="-147" font-family="Times,serif" font-size="14.00">(x, z)</text>
</g>
<!-- vendor&#45;with&#45;item -->
<g id="node3" class="node">
<title>vendor&#45;with&#45;item</title>
<ellipse fill="none" stroke="black" cx="75.06" cy="-18" rx="27" ry="18"/>
</g>
<!-- client&#45;with&#45;money -->
<g id="node4" class="node">
<title>client&#45;with&#45;money</title>
<ellipse fill="none" stroke="black" cx="147.06" cy="-18" rx="27" ry="18"/>
</g>
<!-- take&#45;home&#45;&gt;vendor&#45;with&#45;item -->
<g id="edge3" class="edge">
<title>take&#45;home&#45;&gt;vendor&#45;with&#45;item</title>
<path fill="none" stroke="black" d="M103.33,-88.77C100.79,-83.08 97.99,-76.69 95.52,-70.8 92.06,-62.56 88.43,-53.52 85.21,-45.33"/>
<polygon fill="black" stroke="black" points="88.41,-43.91 81.51,-35.87 81.89,-46.46 88.41,-43.91"/>
<text text-anchor="middle" x="110.82" y="-58.2" font-family="Times,serif" font-size="14.00">(y, z)</text>
</g>
<!-- take&#45;home&#45;&gt;client&#45;with&#45;money -->
<g id="edge4" class="edge">
<title>take&#45;home&#45;&gt;client&#45;with&#45;money</title>
<path fill="none" stroke="black" d="M118.17,-88.65C123.31,-76.25 130.36,-59.26 136.2,-45.17"/>
<polygon fill="black" stroke="black" points="139.6,-46.1 140.2,-35.52 133.14,-43.42 139.6,-46.1"/>
<text text-anchor="middle" x="150.16" y="-58.2" font-family="Times,serif" font-size="14.00">(x, m)</text>
</g>
</g>
</svg>
