<?xml version="1.0" encoding="UTF-8" standalone="no"?>
<!DOCTYPE svg PUBLIC "-//W3C//DTD SVG 1.1//EN"
 "http://www.w3.org/Graphics/SVG/1.1/DTD/svg11.dtd">
<!-- Generated by graphviz version 5.0.0 (20220707.2145)
 -->
<!-- Title: G Pages: 1 -->
<svg width="242pt" height="222pt"
 viewBox="0.00 0.00 242.17 221.60" xmlns="http://www.w3.org/2000/svg" xmlns:xlink="http://www.w3.org/1999/xlink">
<g id="graph0" class="graph" transform="scale(1 1) rotate(0) translate(4 217.6)">
<title>G</title>
<polygon fill="white" stroke="transparent" points="-4,4 -4,-217.6 238.17,-217.6 238.17,4 -4,4"/>
<!-- vendor&#45;available -->
<g id="node1" class="node">
<title>vendor&#45;available</title>
<ellipse fill="none" stroke="black" cx="57.42" cy="-195.6" rx="27" ry="18"/>
<text text-anchor="middle" x="57.42" y="-191.4" font-family="Times,serif" font-size="14.00">V1</text>
</g>
<!-- take&#45;home -->
<g id="node5" class="node">
<title>take&#45;home</title>
<polygon fill="none" stroke="black" points="163.62,-124.8 47.23,-124.8 47.23,-88.8 163.62,-88.8 163.62,-124.8"/>
<text text-anchor="middle" x="105.42" y="-102.6" font-family="Times,serif" font-size="14.00">item to take home</text>
</g>
<!-- vendor&#45;available&#45;&gt;take&#45;home -->
<g id="edge1" class="edge">
<title>vendor&#45;available&#45;&gt;take&#45;home</title>
<path fill="none" stroke="black" d="M66.45,-178.27C73.36,-165.79 83.02,-148.32 90.99,-133.9"/>
<polygon fill="black" stroke="black" points="94.16,-135.39 95.94,-124.94 88.04,-132 94.16,-135.39"/>
<text text-anchor="middle" x="89.92" y="-147" font-family="Times,serif" font-size="14.00">y</text>
</g>
<!-- client&#45;with&#45;item -->
<g id="node2" class="node">
<title>client&#45;with&#45;item</title>
<ellipse fill="none" stroke="black" cx="153.42" cy="-195.6" rx="51.02" ry="18"/>
<text text-anchor="middle" x="153.42" y="-191.4" font-family="Times,serif" font-size="14.00">Bob,shoes</text>
</g>
<!-- client&#45;with&#45;item&#45;&gt;take&#45;home -->
<g id="edge2" class="edge">
<title>client&#45;with&#45;item&#45;&gt;take&#45;home</title>
<path fill="none" stroke="black" d="M144.17,-177.86C137.28,-165.42 127.76,-148.19 119.88,-133.94"/>
<polygon fill="black" stroke="black" points="122.88,-132.14 114.98,-125.08 116.75,-135.52 122.88,-132.14"/>
<text text-anchor="middle" x="148.19" y="-147" font-family="Times,serif" font-size="14.00">(x, z)</text>
</g>
<!-- vendor&#45;with&#45;item -->
<g id="node3" class="node">
<title>vendor&#45;with&#45;item</title>
<ellipse fill="none" stroke="black" cx="42.42" cy="-18" rx="42.34" ry="18"/>
<text text-anchor="middle" x="42.42" y="-13.8" font-family="Times,serif" font-size="14.00">V2,shirt</text>
</g>
<!-- client&#45;with&#45;money -->
<g id="node4" class="node">
<title>client&#45;with&#45;money</title>
<ellipse fill="none" stroke="black" cx="168.42" cy="-18" rx="66" ry="18"/>
<text text-anchor="middle" x="168.42" y="-13.8" font-family="Times,serif" font-size="14.00">Alice,50 EUR</text>
</g>
<!-- take&#45;home&#45;&gt;vendor&#45;with&#45;item -->
<g id="edge3" class="edge">
<title>take&#45;home&#45;&gt;vendor&#45;with&#45;item</title>
<path fill="none" stroke="black" d="M92.97,-88.65C83.71,-75.89 70.92,-58.27 60.53,-43.94"/>
<polygon fill="black" stroke="black" points="63.12,-41.56 54.42,-35.52 57.46,-45.67 63.12,-41.56"/>
<text text-anchor="middle" x="95.19" y="-58.2" font-family="Times,serif" font-size="14.00">(y, z)</text>
</g>
<!-- take&#45;home&#45;&gt;client&#45;with&#45;money -->
<g id="edge4" class="edge">
<title>take&#45;home&#45;&gt;client&#45;with&#45;money</title>
<path fill="none" stroke="black" d="M117.87,-88.65C127.07,-75.97 139.76,-58.49 150.12,-44.22"/>
<polygon fill="black" stroke="black" points="153.17,-45.97 156.22,-35.82 147.51,-41.86 153.17,-45.97"/>
<text text-anchor="middle" x="159.53" y="-58.2" font-family="Times,serif" font-size="14.00">(x, m)</text>
</g>
</g>
</svg>
