<?xml version="1.0" encoding="UTF-8" standalone="no"?>
<!DOCTYPE svg PUBLIC "-//W3C//DTD SVG 1.1//EN"
 "http://www.w3.org/Graphics/SVG/1.1/DTD/svg11.dtd">
<!-- Generated by graphviz version 5.0.0 (20220707.2145)
 -->
<!-- Title: G Pages: 1 -->
<svg width="250pt" height="222pt"
 viewBox="0.00 0.00 250.47 221.60" xmlns="http://www.w3.org/2000/svg" xmlns:xlink="http://www.w3.org/1999/xlink">
<g id="graph0" class="graph" transform="scale(1 1) rotate(0) translate(4 217.6)">
<title>G</title>
<polygon fill="white" stroke="transparent" points="-4,4 -4,-217.6 246.47,-217.6 246.47,4 -4,4"/>
<!-- vendor&#45;available -->
<g id="node1" class="node">
<title>vendor&#45;available</title>
<ellipse fill="none" stroke="black" cx="63.71" cy="-195.6" rx="27" ry="18"/>
<text text-anchor="middle" x="63.71" y="-191.4" font-family="Times,serif" font-size="14.00">V2</text>
</g>
<!-- take&#45;home -->
<g id="node5" class="node">
<title>take&#45;home</title>
<polygon fill="none" stroke="black" points="169.91,-124.8 53.52,-124.8 53.52,-88.8 169.91,-88.8 169.91,-124.8"/>
<text text-anchor="middle" x="111.71" y="-102.6" font-family="Times,serif" font-size="14.00">item to take home</text>
</g>
<!-- vendor&#45;available&#45;&gt;take&#45;home -->
<g id="edge1" class="edge">
<title>vendor&#45;available&#45;&gt;take&#45;home</title>
<path fill="none" stroke="black" d="M72.74,-178.27C79.65,-165.79 89.31,-148.32 97.28,-133.9"/>
<polygon fill="black" stroke="black" points="100.46,-135.39 102.23,-124.94 94.33,-132 100.46,-135.39"/>
<text text-anchor="middle" x="96.21" y="-147" font-family="Times,serif" font-size="14.00">y</text>
</g>
<!-- client&#45;with&#45;item -->
<g id="node2" class="node">
<title>client&#45;with&#45;item</title>
<ellipse fill="none" stroke="black" cx="160.71" cy="-195.6" rx="51.56" ry="18"/>
<text text-anchor="middle" x="160.71" y="-191.4" font-family="Times,serif" font-size="14.00">Alice,shirt</text>
</g>
<!-- client&#45;with&#45;item&#45;&gt;take&#45;home -->
<g id="edge2" class="edge">
<title>client&#45;with&#45;item&#45;&gt;take&#45;home</title>
<path fill="none" stroke="black" d="M151.26,-177.86C144.24,-165.42 134.52,-148.19 126.47,-133.94"/>
<polygon fill="black" stroke="black" points="129.43,-132.07 121.47,-125.08 123.33,-135.51 129.43,-132.07"/>
<text text-anchor="middle" x="154.48" y="-147" font-family="Times,serif" font-size="14.00">(x, z)</text>
</g>
<!-- vendor&#45;with&#45;item -->
<g id="node3" class="node">
<title>vendor&#45;with&#45;item</title>
<ellipse fill="none" stroke="black" cx="46.71" cy="-18" rx="46.93" ry="18"/>
<text text-anchor="middle" x="46.71" y="-13.8" font-family="Times,serif" font-size="14.00">V1 shoes</text>
</g>
<!-- client&#45;with&#45;money -->
<g id="node4" class="node">
<title>client&#45;with&#45;money</title>
<ellipse fill="none" stroke="black" cx="176.71" cy="-18" rx="65.53" ry="18"/>
<text text-anchor="middle" x="176.71" y="-13.8" font-family="Times,serif" font-size="14.00">Bob 120 EUR</text>
</g>
<!-- take&#45;home&#45;&gt;vendor&#45;with&#45;item -->
<g id="edge3" class="edge">
<title>take&#45;home&#45;&gt;vendor&#45;with&#45;item</title>
<path fill="none" stroke="black" d="M98.87,-88.65C89.22,-75.77 75.87,-57.93 65.09,-43.54"/>
<polygon fill="black" stroke="black" points="67.88,-41.43 59.09,-35.52 62.28,-45.63 67.88,-41.43"/>
<text text-anchor="middle" x="100.48" y="-58.2" font-family="Times,serif" font-size="14.00">(y, z)</text>
</g>
<!-- take&#45;home&#45;&gt;client&#45;with&#45;money -->
<g id="edge4" class="edge">
<title>take&#45;home&#45;&gt;client&#45;with&#45;money</title>
<path fill="none" stroke="black" d="M124.55,-88.65C134.05,-75.97 147.14,-58.49 157.83,-44.22"/>
<polygon fill="black" stroke="black" points="160.93,-45.92 164.12,-35.82 155.32,-41.72 160.93,-45.92"/>
<text text-anchor="middle" x="166.82" y="-58.2" font-family="Times,serif" font-size="14.00">(x, m)</text>
</g>
</g>
</svg>
