<?xml version="1.0" encoding="UTF-8" standalone="no"?>
<!DOCTYPE svg PUBLIC "-//W3C//DTD SVG 1.1//EN"
 "http://www.w3.org/Graphics/SVG/1.1/DTD/svg11.dtd">
<!-- Generated by graphviz version 5.0.0 (20220707.2145)
 -->
<!-- Title: G Pages: 1 -->
<svg width="331pt" height="399pt"
 viewBox="0.00 0.00 331.32 399.20" xmlns="http://www.w3.org/2000/svg" xmlns:xlink="http://www.w3.org/1999/xlink">
<g id="graph0" class="graph" transform="scale(1 1) rotate(0) translate(4 395.2)">
<title>G</title>
<polygon fill="white" stroke="transparent" points="-4,4 -4,-395.2 327.32,-395.2 327.32,4 -4,4"/>
<!-- vendor&#45;available -->
<g id="node1" class="node">
<title>vendor&#45;available</title>
<ellipse fill="none" stroke="black" cx="85.32" cy="-373.2" rx="27" ry="18"/>
</g>
<!-- take&#45;home -->
<g id="node9" class="node">
<title>take&#45;home</title>
<polygon fill="none" stroke="black" points="179.51,-302.4 63.12,-302.4 63.12,-266.4 179.51,-266.4 179.51,-302.4"/>
<text text-anchor="middle" x="121.32" y="-280.2" font-family="Times,serif" font-size="14.00">item to take home</text>
</g>
<!-- vendor&#45;available&#45;&gt;take&#45;home -->
<g id="edge1" class="edge">
<title>vendor&#45;available&#45;&gt;take&#45;home</title>
<path fill="none" stroke="black" d="M92.26,-355.46C97.37,-343.14 104.43,-326.12 110.31,-311.95"/>
<polygon fill="black" stroke="black" points="113.55,-313.26 114.15,-302.68 107.09,-310.57 113.55,-313.26"/>
<text text-anchor="middle" x="110.82" y="-324.6" font-family="Times,serif" font-size="14.00">y</text>
</g>
<!-- client&#45;wants&#45;item -->
<g id="node2" class="node">
<title>client&#45;wants&#45;item</title>
<ellipse fill="none" stroke="black" cx="157.32" cy="-373.2" rx="27" ry="18"/>
</g>
<!-- client&#45;wants&#45;item&#45;&gt;take&#45;home -->
<g id="edge2" class="edge">
<title>client&#45;wants&#45;item&#45;&gt;take&#45;home</title>
<path fill="none" stroke="black" d="M150.38,-355.46C145.26,-343.14 138.21,-326.12 132.33,-311.95"/>
<polygon fill="black" stroke="black" points="135.55,-310.57 128.48,-302.68 129.08,-313.26 135.55,-310.57"/>
<text text-anchor="middle" x="157.09" y="-324.6" font-family="Times,serif" font-size="14.00">(x, z)</text>
</g>
<!-- cashier&#45;available&#45;1 -->
<g id="node3" class="node">
<title>cashier&#45;available&#45;1</title>
<ellipse fill="none" stroke="black" cx="296.32" cy="-195.6" rx="27" ry="18"/>
<text text-anchor="middle" x="296.32" y="-191.4" font-family="Times,serif" font-size="14.00">C1</text>
</g>
<!-- client&#45;pay -->
<g id="node11" class="node">
<title>client&#45;pay</title>
<polygon fill="none" stroke="black" points="319,-124.8 181.64,-124.8 181.64,-88.8 319,-88.8 319,-124.8"/>
<text text-anchor="middle" x="250.32" y="-102.6" font-family="Times,serif" font-size="14.00">client pays take home</text>
</g>
<!-- cashier&#45;available&#45;1&#45;&gt;client&#45;pay -->
<g id="edge8" class="edge">
<title>cashier&#45;available&#45;1&#45;&gt;client&#45;pay</title>
<path fill="none" stroke="black" d="M287.67,-178.27C281.05,-165.79 271.79,-148.32 264.15,-133.9"/>
<polygon fill="black" stroke="black" points="267.18,-132.14 259.4,-124.94 260.99,-135.42 267.18,-132.14"/>
<text text-anchor="middle" x="280.42" y="-147" font-family="Times,serif" font-size="14.00">c</text>
</g>
<!-- vendor&#45;with&#45;item -->
<g id="node4" class="node">
<title>vendor&#45;with&#45;item</title>
<ellipse fill="none" stroke="black" cx="59.32" cy="-195.6" rx="42.34" ry="18"/>
<text text-anchor="middle" x="59.32" y="-191.4" font-family="Times,serif" font-size="14.00">V1 shirt</text>
</g>
<!-- vendor&#45;pack -->
<g id="node10" class="node">
<title>vendor&#45;pack</title>
<polygon fill="none" stroke="black" points="118.45,-124.8 0.18,-124.8 0.18,-88.8 118.45,-88.8 118.45,-124.8"/>
<text text-anchor="middle" x="59.32" y="-102.6" font-family="Times,serif" font-size="14.00">vendor packs item</text>
</g>
<!-- vendor&#45;with&#45;item&#45;&gt;vendor&#45;pack -->
<g id="edge5" class="edge">
<title>vendor&#45;with&#45;item&#45;&gt;vendor&#45;pack</title>
<path fill="none" stroke="black" d="M59.32,-177.45C59.32,-165.32 59.32,-148.82 59.32,-134.92"/>
<polygon fill="black" stroke="black" points="62.82,-134.91 59.32,-124.91 55.82,-134.91 62.82,-134.91"/>
<text text-anchor="middle" x="74.09" y="-147" font-family="Times,serif" font-size="14.00">(y, z)</text>
</g>
<!-- client&#45;with&#45;money -->
<g id="node5" class="node">
<title>client&#45;with&#45;money</title>
<ellipse fill="none" stroke="black" cx="185.32" cy="-195.6" rx="66" ry="18"/>
<text text-anchor="middle" x="185.32" y="-191.4" font-family="Times,serif" font-size="14.00">Alice 50 EUR</text>
</g>
<!-- client&#45;with&#45;money&#45;&gt;client&#45;pay -->
<g id="edge7" class="edge">
<title>client&#45;with&#45;money&#45;&gt;client&#45;pay</title>
<path fill="none" stroke="black" d="M197.85,-177.86C207.35,-165.18 220.56,-147.54 231.35,-133.13"/>
<polygon fill="black" stroke="black" points="234.19,-135.18 237.38,-125.08 228.58,-130.99 234.19,-135.18"/>
<text text-anchor="middle" x="238.48" y="-147" font-family="Times,serif" font-size="14.00">(x, k)</text>
</g>
<!-- vendor&#45;with&#45;packed&#45;item -->
<g id="node6" class="node">
<title>vendor&#45;with&#45;packed&#45;item</title>
<ellipse fill="none" stroke="black" cx="59.32" cy="-18" rx="27" ry="18"/>
</g>
<!-- client&#45;with&#45;receipt -->
<g id="node7" class="node">
<title>client&#45;with&#45;receipt</title>
<ellipse fill="none" stroke="black" cx="214.32" cy="-18" rx="27" ry="18"/>
</g>
<!-- cashier&#45;available&#45;2 -->
<g id="node8" class="node">
<title>cashier&#45;available&#45;2</title>
<ellipse fill="none" stroke="black" cx="286.32" cy="-18" rx="27" ry="18"/>
</g>
<!-- take&#45;home&#45;&gt;vendor&#45;with&#45;item -->
<g id="edge3" class="edge">
<title>take&#45;home&#45;&gt;vendor&#45;with&#45;item</title>
<path fill="none" stroke="black" d="M109.07,-266.25C99.95,-253.49 87.37,-235.87 77.13,-221.54"/>
<polygon fill="black" stroke="black" points="79.78,-219.23 71.12,-213.12 74.08,-223.3 79.78,-219.23"/>
<text text-anchor="middle" x="111.09" y="-235.8" font-family="Times,serif" font-size="14.00">(y, z)</text>
</g>
<!-- take&#45;home&#45;&gt;client&#45;with&#45;money -->
<g id="edge4" class="edge">
<title>take&#45;home&#45;&gt;client&#45;with&#45;money</title>
<path fill="none" stroke="black" d="M133.96,-266.25C143.31,-253.57 156.2,-236.09 166.72,-221.82"/>
<polygon fill="black" stroke="black" points="169.8,-223.54 172.92,-213.42 164.17,-219.39 169.8,-223.54"/>
<text text-anchor="middle" x="173.48" y="-235.8" font-family="Times,serif" font-size="14.00">(x, k)</text>
</g>
<!-- vendor&#45;pack&#45;&gt;vendor&#45;with&#45;packed&#45;item -->
<g id="edge6" class="edge">
<title>vendor&#45;pack&#45;&gt;vendor&#45;with&#45;packed&#45;item</title>
<path fill="none" stroke="black" d="M59.32,-88.65C59.32,-76.52 59.32,-60.02 59.32,-46.12"/>
<polygon fill="black" stroke="black" points="62.82,-46.11 59.32,-36.11 55.82,-46.11 62.82,-46.11"/>
<text text-anchor="middle" x="72.92" y="-58.2" font-family="Times,serif" font-size="14.00">(y, l)</text>
</g>
<!-- client&#45;pay&#45;&gt;client&#45;with&#45;receipt -->
<g id="edge9" class="edge">
<title>client&#45;pay&#45;&gt;client&#45;with&#45;receipt</title>
<path fill="none" stroke="black" d="M239.44,-88.76C236.15,-83.18 232.73,-76.85 230.1,-70.8 226.68,-62.92 223.69,-54.06 221.26,-45.93"/>
<polygon fill="black" stroke="black" points="224.58,-44.81 218.49,-36.15 217.84,-46.72 224.58,-44.81"/>
<text text-anchor="middle" x="246.42" y="-58.2" font-family="Times,serif" font-size="14.00">(x, m)</text>
</g>
<!-- client&#45;pay&#45;&gt;cashier&#45;available&#45;2 -->
<g id="edge10" class="edge">
<title>client&#45;pay&#45;&gt;cashier&#45;available&#45;2</title>
<path fill="none" stroke="black" d="M257.43,-88.65C262.57,-76.25 269.62,-59.26 275.46,-45.17"/>
<polygon fill="black" stroke="black" points="278.87,-46.1 279.46,-35.52 272.4,-43.42 278.87,-46.1"/>
<text text-anchor="middle" x="274.42" y="-58.2" font-family="Times,serif" font-size="14.00">c</text>
</g>
</g>
</svg>
