<?xml version="1.0" encoding="UTF-8" standalone="no"?>
<!DOCTYPE svg PUBLIC "-//W3C//DTD SVG 1.1//EN"
 "http://www.w3.org/Graphics/SVG/1.1/DTD/svg11.dtd">
<!-- Generated by graphviz version 5.0.0 (20220707.2145)
 -->
<!-- Title: G Pages: 1 -->
<svg width="432pt" height="222pt"
 viewBox="0.00 0.00 432.40 221.60" xmlns="http://www.w3.org/2000/svg" xmlns:xlink="http://www.w3.org/1999/xlink">
<g id="graph0" class="graph" transform="scale(1 1) rotate(0) translate(4 217.6)">
<title>G</title>
<polygon fill="white" stroke="transparent" points="-4,4 -4,-217.6 428.4,-217.6 428.4,4 -4,4"/>
<!-- vendor&#45;available -->
<g id="node1" class="node">
<title>vendor&#45;available</title>
<ellipse fill="none" stroke="black" cx="154.51" cy="-195.6" rx="27" ry="18"/>
</g>
<!-- take&#45;home -->
<g id="node5" class="node">
<title>take&#45;home</title>
<polygon fill="none" stroke="black" points="248.71,-124.8 132.32,-124.8 132.32,-88.8 248.71,-88.8 248.71,-124.8"/>
<text text-anchor="middle" x="190.51" y="-102.6" font-family="Times,serif" font-size="14.00">item to take home</text>
</g>
<!-- vendor&#45;available&#45;&gt;take&#45;home -->
<g id="edge1" class="edge">
<title>vendor&#45;available&#45;&gt;take&#45;home</title>
<path fill="none" stroke="black" d="M161.45,-177.86C166.57,-165.54 173.62,-148.52 179.5,-134.35"/>
<polygon fill="black" stroke="black" points="182.75,-135.66 183.35,-125.08 176.28,-132.97 182.75,-135.66"/>
<text text-anchor="middle" x="180.01" y="-147" font-family="Times,serif" font-size="14.00">y</text>
</g>
<!-- client&#45;with&#45;item -->
<g id="node2" class="node">
<title>client&#45;with&#45;item</title>
<ellipse fill="none" stroke="black" cx="226.51" cy="-195.6" rx="27" ry="18"/>
</g>
<!-- client&#45;with&#45;item&#45;&gt;take&#45;home -->
<g id="edge2" class="edge">
<title>client&#45;with&#45;item&#45;&gt;take&#45;home</title>
<path fill="none" stroke="black" d="M219.57,-177.86C214.46,-165.54 207.4,-148.52 201.52,-134.35"/>
<polygon fill="black" stroke="black" points="204.74,-132.97 197.68,-125.08 198.28,-135.66 204.74,-132.97"/>
<text text-anchor="middle" x="226.28" y="-147" font-family="Times,serif" font-size="14.00">(x, z)</text>
</g>
<!-- vendor&#45;with&#45;item -->
<g id="node3" class="node">
<title>vendor&#45;with&#45;item</title>
<ellipse fill="none" stroke="black" cx="80.51" cy="-18" rx="80.52" ry="18"/>
<text text-anchor="middle" x="80.51" y="-13.8" font-family="Times,serif" font-size="14.00">V1,shirt V2,shoes</text>
</g>
<!-- client&#45;with&#45;money -->
<g id="node4" class="node">
<title>client&#45;with&#45;money</title>
<ellipse fill="none" stroke="black" cx="301.51" cy="-18" rx="122.78" ry="18"/>
<text text-anchor="middle" x="301.51" y="-13.8" font-family="Times,serif" font-size="14.00">Alice,50 EUR Bob,120 EUR</text>
</g>
<!-- take&#45;home&#45;&gt;vendor&#45;with&#45;item -->
<g id="edge3" class="edge">
<title>take&#45;home&#45;&gt;vendor&#45;with&#45;item</title>
<path fill="none" stroke="black" d="M168.78,-88.65C151.76,-75.22 127.94,-56.43 109.33,-41.74"/>
<polygon fill="black" stroke="black" points="111.47,-38.97 101.45,-35.52 107.13,-44.47 111.47,-38.97"/>
<text text-anchor="middle" x="160.28" y="-58.2" font-family="Times,serif" font-size="14.00">(y, z)</text>
</g>
<!-- take&#45;home&#45;&gt;client&#45;with&#45;money -->
<g id="edge4" class="edge">
<title>take&#45;home&#45;&gt;client&#45;with&#45;money</title>
<path fill="none" stroke="black" d="M212.44,-88.65C229.5,-75.31 253.34,-56.67 272.07,-42.02"/>
<polygon fill="black" stroke="black" points="274.28,-44.74 280.01,-35.82 269.97,-39.22 274.28,-44.74"/>
<text text-anchor="middle" x="272.62" y="-58.2" font-family="Times,serif" font-size="14.00">(x, m)</text>
</g>
</g>
</svg>
