<?xml version="1.0" encoding="UTF-8" standalone="no"?>
<!DOCTYPE svg PUBLIC "-//W3C//DTD SVG 1.1//EN"
 "http://www.w3.org/Graphics/SVG/1.1/DTD/svg11.dtd">
<!-- Generated by graphviz version 5.0.0 (20220707.2145)
 -->
<!-- Title: G Pages: 1 -->
<svg width="367pt" height="399pt"
 viewBox="0.00 0.00 366.60 399.20" xmlns="http://www.w3.org/2000/svg" xmlns:xlink="http://www.w3.org/1999/xlink">
<g id="graph0" class="graph" transform="scale(1 1) rotate(0) translate(4 395.2)">
<title>G</title>
<polygon fill="white" stroke="transparent" points="-4,4 -4,-395.2 362.6,-395.2 362.6,4 -4,4"/>
<!-- vendor&#45;available -->
<g id="node1" class="node">
<title>vendor&#45;available</title>
<ellipse fill="none" stroke="black" cx="110.76" cy="-373.2" rx="27" ry="18"/>
</g>
<!-- take&#45;home -->
<g id="node9" class="node">
<title>take&#45;home</title>
<polygon fill="none" stroke="black" points="204.96,-302.4 88.57,-302.4 88.57,-266.4 204.96,-266.4 204.96,-302.4"/>
<text text-anchor="middle" x="146.76" y="-280.2" font-family="Times,serif" font-size="14.00">item to take home</text>
</g>
<!-- vendor&#45;available&#45;&gt;take&#45;home -->
<g id="edge1" class="edge">
<title>vendor&#45;available&#45;&gt;take&#45;home</title>
<path fill="none" stroke="black" d="M117.7,-355.46C122.82,-343.14 129.87,-326.12 135.75,-311.95"/>
<polygon fill="black" stroke="black" points="139,-313.26 139.6,-302.68 132.53,-310.57 139,-313.26"/>
<text text-anchor="middle" x="136.26" y="-324.6" font-family="Times,serif" font-size="14.00">y</text>
</g>
<!-- client&#45;wants&#45;item -->
<g id="node2" class="node">
<title>client&#45;wants&#45;item</title>
<ellipse fill="none" stroke="black" cx="182.76" cy="-373.2" rx="27" ry="18"/>
</g>
<!-- client&#45;wants&#45;item&#45;&gt;take&#45;home -->
<g id="edge2" class="edge">
<title>client&#45;wants&#45;item&#45;&gt;take&#45;home</title>
<path fill="none" stroke="black" d="M175.82,-355.46C170.71,-343.14 163.65,-326.12 157.77,-311.95"/>
<polygon fill="black" stroke="black" points="160.99,-310.57 153.93,-302.68 154.53,-313.26 160.99,-310.57"/>
<text text-anchor="middle" x="182.53" y="-324.6" font-family="Times,serif" font-size="14.00">(x, z)</text>
</g>
<!-- cashier&#45;available&#45;1 -->
<g id="node3" class="node">
<title>cashier&#45;available&#45;1</title>
<ellipse fill="none" stroke="black" cx="313.76" cy="-195.6" rx="27" ry="18"/>
<text text-anchor="middle" x="313.76" y="-191.4" font-family="Times,serif" font-size="14.00">C1</text>
</g>
<!-- client&#45;pay -->
<g id="node11" class="node">
<title>client&#45;pay</title>
<polygon fill="none" stroke="black" points="358.44,-124.8 221.08,-124.8 221.08,-88.8 358.44,-88.8 358.44,-124.8"/>
<text text-anchor="middle" x="289.76" y="-102.6" font-family="Times,serif" font-size="14.00">client pays take home</text>
</g>
<!-- cashier&#45;available&#45;1&#45;&gt;client&#45;pay -->
<g id="edge8" class="edge">
<title>cashier&#45;available&#45;1&#45;&gt;client&#45;pay</title>
<path fill="none" stroke="black" d="M309.14,-177.86C305.76,-165.65 301.11,-148.85 297.22,-134.76"/>
<polygon fill="black" stroke="black" points="300.58,-133.78 294.54,-125.08 293.83,-135.65 300.58,-133.78"/>
<text text-anchor="middle" x="306.87" y="-147" font-family="Times,serif" font-size="14.00">c</text>
</g>
<!-- vendor&#45;with&#45;item -->
<g id="node4" class="node">
<title>vendor&#45;with&#45;item</title>
<ellipse fill="none" stroke="black" cx="91.76" cy="-195.6" rx="27" ry="18"/>
</g>
<!-- vendor&#45;pack -->
<g id="node10" class="node">
<title>vendor&#45;pack</title>
<polygon fill="none" stroke="black" points="150.9,-124.8 32.63,-124.8 32.63,-88.8 150.9,-88.8 150.9,-124.8"/>
<text text-anchor="middle" x="91.76" y="-102.6" font-family="Times,serif" font-size="14.00">vendor packs item</text>
</g>
<!-- vendor&#45;with&#45;item&#45;&gt;vendor&#45;pack -->
<g id="edge5" class="edge">
<title>vendor&#45;with&#45;item&#45;&gt;vendor&#45;pack</title>
<path fill="none" stroke="black" d="M91.76,-177.45C91.76,-165.32 91.76,-148.82 91.76,-134.92"/>
<polygon fill="black" stroke="black" points="95.26,-134.91 91.76,-124.91 88.26,-134.91 95.26,-134.91"/>
<text text-anchor="middle" x="106.53" y="-147" font-family="Times,serif" font-size="14.00">(y, z)</text>
</g>
<!-- client&#45;with&#45;money -->
<g id="node5" class="node">
<title>client&#45;with&#45;money</title>
<ellipse fill="none" stroke="black" cx="202.76" cy="-195.6" rx="66" ry="18"/>
<text text-anchor="middle" x="202.76" y="-191.4" font-family="Times,serif" font-size="14.00">Alice 50 EUR</text>
</g>
<!-- client&#45;with&#45;money&#45;&gt;client&#45;pay -->
<g id="edge7" class="edge">
<title>client&#45;with&#45;money&#45;&gt;client&#45;pay</title>
<path fill="none" stroke="black" d="M219.54,-177.86C232.49,-164.94 250.6,-146.87 265.18,-132.32"/>
<polygon fill="black" stroke="black" points="267.84,-134.62 272.44,-125.08 262.89,-129.66 267.84,-134.62"/>
<text text-anchor="middle" x="268.92" y="-147" font-family="Times,serif" font-size="14.00">(x, k)</text>
</g>
<!-- vendor&#45;with&#45;packed&#45;item -->
<g id="node6" class="node">
<title>vendor&#45;with&#45;packed&#45;item</title>
<ellipse fill="none" stroke="black" cx="91.76" cy="-18" rx="91.53" ry="18"/>
<text text-anchor="middle" x="91.76" y="-13.8" font-family="Times,serif" font-size="14.00">V1 with packed shirt</text>
</g>
<!-- client&#45;with&#45;receipt -->
<g id="node7" class="node">
<title>client&#45;with&#45;receipt</title>
<ellipse fill="none" stroke="black" cx="253.76" cy="-18" rx="27" ry="18"/>
</g>
<!-- cashier&#45;available&#45;2 -->
<g id="node8" class="node">
<title>cashier&#45;available&#45;2</title>
<ellipse fill="none" stroke="black" cx="325.76" cy="-18" rx="27" ry="18"/>
</g>
<!-- take&#45;home&#45;&gt;vendor&#45;with&#45;item -->
<g id="edge3" class="edge">
<title>take&#45;home&#45;&gt;vendor&#45;with&#45;item</title>
<path fill="none" stroke="black" d="M135.9,-266.25C127.7,-253.32 116.36,-235.41 107.22,-220.99"/>
<polygon fill="black" stroke="black" points="110.17,-219.12 101.86,-212.54 104.26,-222.86 110.17,-219.12"/>
<text text-anchor="middle" x="139.53" y="-235.8" font-family="Times,serif" font-size="14.00">(y, z)</text>
</g>
<!-- take&#45;home&#45;&gt;client&#45;with&#45;money -->
<g id="edge4" class="edge">
<title>take&#45;home&#45;&gt;client&#45;with&#45;money</title>
<path fill="none" stroke="black" d="M157.83,-266.25C165.93,-253.69 177.07,-236.42 186.23,-222.22"/>
<polygon fill="black" stroke="black" points="189.43,-223.72 191.91,-213.42 183.55,-219.92 189.43,-223.72"/>
<text text-anchor="middle" x="194.92" y="-235.8" font-family="Times,serif" font-size="14.00">(x, k)</text>
</g>
<!-- vendor&#45;pack&#45;&gt;vendor&#45;with&#45;packed&#45;item -->
<g id="edge6" class="edge">
<title>vendor&#45;pack&#45;&gt;vendor&#45;with&#45;packed&#45;item</title>
<path fill="none" stroke="black" d="M91.76,-88.65C91.76,-76.52 91.76,-60.02 91.76,-46.12"/>
<polygon fill="black" stroke="black" points="95.26,-46.11 91.76,-36.11 88.26,-46.11 95.26,-46.11"/>
<text text-anchor="middle" x="105.37" y="-58.2" font-family="Times,serif" font-size="14.00">(y, l)</text>
</g>
<!-- client&#45;pay&#45;&gt;client&#45;with&#45;receipt -->
<g id="edge9" class="edge">
<title>client&#45;pay&#45;&gt;client&#45;with&#45;receipt</title>
<path fill="none" stroke="black" d="M278.88,-88.76C275.6,-83.18 272.18,-76.85 269.55,-70.8 266.12,-62.92 263.13,-54.06 260.7,-45.93"/>
<polygon fill="black" stroke="black" points="264.02,-44.81 257.93,-36.15 257.29,-46.72 264.02,-44.81"/>
<text text-anchor="middle" x="285.87" y="-58.2" font-family="Times,serif" font-size="14.00">(x, m)</text>
</g>
<!-- client&#45;pay&#45;&gt;cashier&#45;available&#45;2 -->
<g id="edge10" class="edge">
<title>client&#45;pay&#45;&gt;cashier&#45;available&#45;2</title>
<path fill="none" stroke="black" d="M296.87,-88.65C302.02,-76.25 309.06,-59.26 314.91,-45.17"/>
<polygon fill="black" stroke="black" points="318.31,-46.1 318.91,-35.52 311.85,-43.42 318.31,-46.1"/>
<text text-anchor="middle" x="313.87" y="-58.2" font-family="Times,serif" font-size="14.00">c</text>
</g>
</g>
</svg>
