<?xml version="1.0" encoding="UTF-8" standalone="no"?>
<!DOCTYPE svg PUBLIC "-//W3C//DTD SVG 1.1//EN"
 "http://www.w3.org/Graphics/SVG/1.1/DTD/svg11.dtd">
<!-- Generated by graphviz version 5.0.0 (20220707.2145)
 -->
<!-- Title: G Pages: 1 -->
<svg width="442pt" height="399pt"
 viewBox="0.00 0.00 441.76 399.20" xmlns="http://www.w3.org/2000/svg" xmlns:xlink="http://www.w3.org/1999/xlink">
<g id="graph0" class="graph" transform="scale(1 1) rotate(0) translate(4 395.2)">
<title>G</title>
<polygon fill="white" stroke="transparent" points="-4,4 -4,-395.2 437.76,-395.2 437.76,4 -4,4"/>
<!-- vendor&#45;available -->
<g id="node1" class="node">
<title>vendor&#45;available</title>
<ellipse fill="none" stroke="black" cx="119.76" cy="-373.2" rx="27" ry="18"/>
</g>
<!-- take&#45;home -->
<g id="node9" class="node">
<title>take&#45;home</title>
<polygon fill="none" stroke="black" points="213.96,-302.4 97.57,-302.4 97.57,-266.4 213.96,-266.4 213.96,-302.4"/>
<text text-anchor="middle" x="155.76" y="-280.2" font-family="Times,serif" font-size="14.00">item to take home</text>
</g>
<!-- vendor&#45;available&#45;&gt;take&#45;home -->
<g id="edge1" class="edge">
<title>vendor&#45;available&#45;&gt;take&#45;home</title>
<path fill="none" stroke="black" d="M126.7,-355.46C131.82,-343.14 138.87,-326.12 144.75,-311.95"/>
<polygon fill="black" stroke="black" points="148,-313.26 148.6,-302.68 141.53,-310.57 148,-313.26"/>
<text text-anchor="middle" x="145.26" y="-324.6" font-family="Times,serif" font-size="14.00">y</text>
</g>
<!-- client&#45;wants&#45;item -->
<g id="node2" class="node">
<title>client&#45;wants&#45;item</title>
<ellipse fill="none" stroke="black" cx="191.76" cy="-373.2" rx="27" ry="18"/>
</g>
<!-- client&#45;wants&#45;item&#45;&gt;take&#45;home -->
<g id="edge2" class="edge">
<title>client&#45;wants&#45;item&#45;&gt;take&#45;home</title>
<path fill="none" stroke="black" d="M184.82,-355.46C179.71,-343.14 172.65,-326.12 166.77,-311.95"/>
<polygon fill="black" stroke="black" points="169.99,-310.57 162.93,-302.68 163.53,-313.26 169.99,-310.57"/>
<text text-anchor="middle" x="191.53" y="-324.6" font-family="Times,serif" font-size="14.00">(x, z)</text>
</g>
<!-- cashier&#45;available&#45;1 -->
<g id="node3" class="node">
<title>cashier&#45;available&#45;1</title>
<ellipse fill="none" stroke="black" cx="281.76" cy="-195.6" rx="27" ry="18"/>
</g>
<!-- client&#45;pay -->
<g id="node11" class="node">
<title>client&#45;pay</title>
<polygon fill="none" stroke="black" points="350.44,-124.8 213.08,-124.8 213.08,-88.8 350.44,-88.8 350.44,-124.8"/>
<text text-anchor="middle" x="281.76" y="-102.6" font-family="Times,serif" font-size="14.00">client pays take home</text>
</g>
<!-- cashier&#45;available&#45;1&#45;&gt;client&#45;pay -->
<g id="edge8" class="edge">
<title>cashier&#45;available&#45;1&#45;&gt;client&#45;pay</title>
<path fill="none" stroke="black" d="M281.76,-177.45C281.76,-165.32 281.76,-148.82 281.76,-134.92"/>
<polygon fill="black" stroke="black" points="285.26,-134.91 281.76,-124.91 278.26,-134.91 285.26,-134.91"/>
<text text-anchor="middle" x="284.87" y="-147" font-family="Times,serif" font-size="14.00">c</text>
</g>
<!-- vendor&#45;with&#45;item -->
<g id="node4" class="node">
<title>vendor&#45;with&#45;item</title>
<ellipse fill="none" stroke="black" cx="120.76" cy="-195.6" rx="27" ry="18"/>
</g>
<!-- vendor&#45;pack -->
<g id="node10" class="node">
<title>vendor&#45;pack</title>
<polygon fill="none" stroke="black" points="172.9,-124.8 54.63,-124.8 54.63,-88.8 172.9,-88.8 172.9,-124.8"/>
<text text-anchor="middle" x="113.76" y="-102.6" font-family="Times,serif" font-size="14.00">vendor packs item</text>
</g>
<!-- vendor&#45;with&#45;item&#45;&gt;vendor&#45;pack -->
<g id="edge5" class="edge">
<title>vendor&#45;with&#45;item&#45;&gt;vendor&#45;pack</title>
<path fill="none" stroke="black" d="M119.38,-177.45C118.4,-165.32 117.07,-148.82 115.95,-134.92"/>
<polygon fill="black" stroke="black" points="119.44,-134.6 115.14,-124.91 112.46,-135.16 119.44,-134.6"/>
<text text-anchor="middle" x="133.53" y="-147" font-family="Times,serif" font-size="14.00">(y, z)</text>
</g>
<!-- client&#45;with&#45;money -->
<g id="node5" class="node">
<title>client&#45;with&#45;money</title>
<ellipse fill="none" stroke="black" cx="203.76" cy="-195.6" rx="27" ry="18"/>
</g>
<!-- client&#45;with&#45;money&#45;&gt;client&#45;pay -->
<g id="edge7" class="edge">
<title>client&#45;with&#45;money&#45;&gt;client&#45;pay</title>
<path fill="none" stroke="black" d="M216.08,-179.38C224.68,-168.92 236.52,-154.81 247.44,-142.8 250.55,-139.38 253.89,-135.83 257.21,-132.37"/>
<polygon fill="black" stroke="black" points="259.92,-134.61 264.39,-125 254.91,-129.72 259.92,-134.61"/>
<text text-anchor="middle" x="261.92" y="-147" font-family="Times,serif" font-size="14.00">(x, k)</text>
</g>
<!-- vendor&#45;with&#45;packed&#45;item -->
<g id="node6" class="node">
<title>vendor&#45;with&#45;packed&#45;item</title>
<ellipse fill="none" stroke="black" cx="91.76" cy="-18" rx="91.53" ry="18"/>
<text text-anchor="middle" x="91.76" y="-13.8" font-family="Times,serif" font-size="14.00">V1 with packed shirt</text>
</g>
<!-- client&#45;with&#45;receipt -->
<g id="node7" class="node">
<title>client&#45;with&#45;receipt</title>
<ellipse fill="none" stroke="black" cx="281.76" cy="-18" rx="80.43" ry="18"/>
<text text-anchor="middle" x="281.76" y="-13.8" font-family="Times,serif" font-size="14.00">Alice with receipt</text>
</g>
<!-- cashier&#45;available&#45;2 -->
<g id="node8" class="node">
<title>cashier&#45;available&#45;2</title>
<ellipse fill="none" stroke="black" cx="406.76" cy="-18" rx="27" ry="18"/>
<text text-anchor="middle" x="406.76" y="-13.8" font-family="Times,serif" font-size="14.00">C1</text>
</g>
<!-- take&#45;home&#45;&gt;vendor&#45;with&#45;item -->
<g id="edge3" class="edge">
<title>take&#45;home&#45;&gt;vendor&#45;with&#45;item</title>
<path fill="none" stroke="black" d="M148.6,-266.33C146.23,-260.64 143.6,-254.25 141.22,-248.4 137.87,-240.12 134.27,-231.06 131.04,-222.88"/>
<polygon fill="black" stroke="black" points="134.24,-221.45 127.32,-213.43 127.73,-224.01 134.24,-221.45"/>
<text text-anchor="middle" x="156.53" y="-235.8" font-family="Times,serif" font-size="14.00">(y, z)</text>
</g>
<!-- take&#45;home&#45;&gt;client&#45;with&#45;money -->
<g id="edge4" class="edge">
<title>take&#45;home&#45;&gt;client&#45;with&#45;money</title>
<path fill="none" stroke="black" d="M165.25,-266.25C172.28,-253.53 181.99,-235.98 189.9,-221.68"/>
<polygon fill="black" stroke="black" points="193.01,-223.28 194.79,-212.83 186.88,-219.89 193.01,-223.28"/>
<text text-anchor="middle" x="198.92" y="-235.8" font-family="Times,serif" font-size="14.00">(x, k)</text>
</g>
<!-- vendor&#45;pack&#45;&gt;vendor&#45;with&#45;packed&#45;item -->
<g id="edge6" class="edge">
<title>vendor&#45;pack&#45;&gt;vendor&#45;with&#45;packed&#45;item</title>
<path fill="none" stroke="black" d="M109.42,-88.65C106.34,-76.52 102.16,-60.02 98.64,-46.12"/>
<polygon fill="black" stroke="black" points="101.95,-44.95 96.1,-36.11 95.16,-46.67 101.95,-44.95"/>
<text text-anchor="middle" x="118.37" y="-58.2" font-family="Times,serif" font-size="14.00">(y, l)</text>
</g>
<!-- client&#45;pay&#45;&gt;client&#45;with&#45;receipt -->
<g id="edge9" class="edge">
<title>client&#45;pay&#45;&gt;client&#45;with&#45;receipt</title>
<path fill="none" stroke="black" d="M281.76,-88.65C281.76,-76.52 281.76,-60.02 281.76,-46.12"/>
<polygon fill="black" stroke="black" points="285.26,-46.11 281.76,-36.11 278.26,-46.11 285.26,-46.11"/>
<text text-anchor="middle" x="298.87" y="-58.2" font-family="Times,serif" font-size="14.00">(x, m)</text>
</g>
<!-- client&#45;pay&#45;&gt;cashier&#45;available&#45;2 -->
<g id="edge10" class="edge">
<title>client&#45;pay&#45;&gt;cashier&#45;available&#45;2</title>
<path fill="none" stroke="black" d="M306.46,-88.65C327.72,-73.89 358.33,-52.63 380.14,-37.49"/>
<polygon fill="black" stroke="black" points="382.38,-40.19 388.6,-31.61 378.39,-34.44 382.38,-40.19"/>
<text text-anchor="middle" x="357.87" y="-58.2" font-family="Times,serif" font-size="14.00">c</text>
</g>
</g>
</svg>
