<?xml version="1.0" encoding="UTF-8" standalone="no"?>
<!DOCTYPE svg PUBLIC "-//W3C//DTD SVG 1.1//EN"
 "http://www.w3.org/Graphics/SVG/1.1/DTD/svg11.dtd">
<!-- Generated by graphviz version 5.0.0 (20220707.2145)
 -->
<!-- Title: G Pages: 1 -->
<svg width="232pt" height="754pt"
 viewBox="0.00 0.00 231.67 754.40" xmlns="http://www.w3.org/2000/svg" xmlns:xlink="http://www.w3.org/1999/xlink">
<g id="graph0" class="graph" transform="scale(1 1) rotate(0) translate(4 750.4)">
<title>G</title>
<polygon fill="white" stroke="transparent" points="-4,4 -4,-750.4 227.67,-750.4 227.67,4 -4,4"/>
<!-- ready&#45;for&#45;insertion -->
<g id="node1" class="node">
<title>ready&#45;for&#45;insertion</title>
<ellipse fill="none" stroke="black" cx="146.67" cy="-728.4" rx="27" ry="18"/>
<text text-anchor="middle" x="146.67" y="-724.2" font-family="Times,serif" font-size="14.00">1</text>
</g>
<!-- insert&#45;coin -->
<g id="node6" class="node">
<title>insert&#45;coin</title>
<polygon fill="none" stroke="black" points="118.88,-657.6 44.47,-657.6 44.47,-621.6 118.88,-621.6 118.88,-657.6"/>
<text text-anchor="middle" x="81.67" y="-635.4" font-family="Times,serif" font-size="14.00">insert coin</text>
</g>
<!-- ready&#45;for&#45;insertion&#45;&gt;insert&#45;coin -->
<g id="edge1" class="edge">
<title>ready&#45;for&#45;insertion&#45;&gt;insert&#45;coin</title>
<path fill="none" stroke="black" d="M135.05,-711.88C125.53,-699.16 111.86,-680.91 100.73,-666.05"/>
<polygon fill="black" stroke="black" points="103.33,-663.67 94.53,-657.77 97.72,-667.87 103.33,-663.67"/>
<text text-anchor="middle" x="124.17" y="-679.8" font-family="Times,serif" font-size="14.00">x</text>
</g>
<!-- holding&#45;coin -->
<g id="node2" class="node">
<title>holding&#45;coin</title>
<ellipse fill="none" stroke="black" cx="81.67" cy="-550.8" rx="27" ry="18"/>
</g>
<!-- accept&#45;coin -->
<g id="node7" class="node">
<title>accept&#45;coin</title>
<polygon fill="none" stroke="black" points="79.52,-480 -0.18,-480 -0.18,-444 79.52,-444 79.52,-480"/>
<text text-anchor="middle" x="39.67" y="-457.8" font-family="Times,serif" font-size="14.00">accept coin</text>
</g>
<!-- holding&#45;coin&#45;&gt;accept&#45;coin -->
<g id="edge3" class="edge">
<title>holding&#45;coin&#45;&gt;accept&#45;coin</title>
<path fill="none" stroke="black" d="M73.77,-533.47C67.79,-521.1 59.44,-503.85 52.5,-489.51"/>
<polygon fill="black" stroke="black" points="55.48,-487.62 47.97,-480.14 49.17,-490.67 55.48,-487.62"/>
<text text-anchor="middle" x="68.17" y="-502.2" font-family="Times,serif" font-size="14.00">x</text>
</g>
<!-- reject&#45;coin -->
<g id="node8" class="node">
<title>reject&#45;coin</title>
<polygon fill="none" stroke="black" points="170.04,-480 97.31,-480 97.31,-444 170.04,-444 170.04,-480"/>
<text text-anchor="middle" x="133.67" y="-457.8" font-family="Times,serif" font-size="14.00">reject join</text>
</g>
<!-- holding&#45;coin&#45;&gt;reject&#45;coin -->
<g id="edge5" class="edge">
<title>holding&#45;coin&#45;&gt;reject&#45;coin</title>
<path fill="none" stroke="black" d="M91.21,-533.88C98.79,-521.23 109.53,-503.3 118.32,-488.64"/>
<polygon fill="black" stroke="black" points="121.35,-490.38 123.49,-480.01 115.34,-486.79 121.35,-490.38"/>
<text text-anchor="middle" x="116.17" y="-502.2" font-family="Times,serif" font-size="14.00">x</text>
</g>
<!-- ready&#45;to&#45;dispense -->
<g id="node3" class="node">
<title>ready&#45;to&#45;dispense</title>
<ellipse fill="none" stroke="black" cx="116.67" cy="-373.2" rx="27" ry="18"/>
</g>
<!-- dispense&#45;candy -->
<g id="node9" class="node">
<title>dispense&#45;candy</title>
<polygon fill="none" stroke="black" points="208.32,-302.4 107.03,-302.4 107.03,-266.4 208.32,-266.4 208.32,-302.4"/>
<text text-anchor="middle" x="157.67" y="-280.2" font-family="Times,serif" font-size="14.00">dispense candy</text>
</g>
<!-- ready&#45;to&#45;dispense&#45;&gt;dispense&#45;candy -->
<g id="edge7" class="edge">
<title>ready&#45;to&#45;dispense&#45;&gt;dispense&#45;candy</title>
<path fill="none" stroke="black" d="M124.39,-355.87C130.23,-343.5 138.38,-326.25 145.15,-311.91"/>
<polygon fill="black" stroke="black" points="148.47,-313.08 149.58,-302.54 142.14,-310.09 148.47,-313.08"/>
<text text-anchor="middle" x="145.17" y="-324.6" font-family="Times,serif" font-size="14.00">x</text>
</g>
<!-- request&#45;for&#45;refill -->
<g id="node4" class="node">
<title>request&#45;for&#45;refill</title>
<ellipse fill="none" stroke="black" cx="196.67" cy="-195.6" rx="27" ry="18"/>
<text text-anchor="middle" x="196.67" y="-191.4" font-family="Times,serif" font-size="14.00">c</text>
</g>
<!-- refill -->
<g id="node10" class="node">
<title>refill</title>
<polygon fill="none" stroke="black" points="223.67,-124.8 169.67,-124.8 169.67,-88.8 223.67,-88.8 223.67,-124.8"/>
<text text-anchor="middle" x="196.67" y="-102.6" font-family="Times,serif" font-size="14.00">refill</text>
</g>
<!-- request&#45;for&#45;refill&#45;&gt;refill -->
<g id="edge11" class="edge">
<title>request&#45;for&#45;refill&#45;&gt;refill</title>
<path fill="none" stroke="black" d="M196.67,-177.45C196.67,-165.32 196.67,-148.82 196.67,-134.92"/>
<polygon fill="black" stroke="black" points="200.17,-134.91 196.67,-124.91 193.17,-134.91 200.17,-134.91"/>
<text text-anchor="middle" x="200.17" y="-147" font-family="Times,serif" font-size="14.00">y</text>
</g>
<!-- candy&#45;storage -->
<g id="node5" class="node">
<title>candy&#45;storage</title>
<ellipse fill="none" stroke="black" cx="157.67" cy="-18" rx="27" ry="18"/>
</g>
<!-- candy&#45;storage&#45;&gt;dispense&#45;candy -->
<g id="edge8" class="edge">
<title>candy&#45;storage&#45;&gt;dispense&#45;candy</title>
<path fill="none" stroke="black" d="M157.67,-36.07C157.67,-80.68 157.67,-201.08 157.67,-255.74"/>
<polygon fill="black" stroke="black" points="154.17,-256.05 157.67,-266.05 161.17,-256.05 154.17,-256.05"/>
<text text-anchor="middle" x="161.17" y="-147" font-family="Times,serif" font-size="14.00">y</text>
</g>
<!-- insert&#45;coin&#45;&gt;holding&#45;coin -->
<g id="edge2" class="edge">
<title>insert&#45;coin&#45;&gt;holding&#45;coin</title>
<path fill="none" stroke="black" d="M81.67,-621.45C81.67,-609.32 81.67,-592.82 81.67,-578.92"/>
<polygon fill="black" stroke="black" points="85.17,-578.91 81.67,-568.91 78.17,-578.91 85.17,-578.91"/>
<text text-anchor="middle" x="85.17" y="-591" font-family="Times,serif" font-size="14.00">x</text>
</g>
<!-- accept&#45;coin&#45;&gt;ready&#45;to&#45;dispense -->
<g id="edge4" class="edge">
<title>accept&#45;coin&#45;&gt;ready&#45;to&#45;dispense</title>
<path fill="none" stroke="black" d="M54.89,-443.85C66.87,-430.34 83.67,-411.4 96.73,-396.68"/>
<polygon fill="black" stroke="black" points="99.53,-398.8 103.54,-389 94.29,-394.16 99.53,-398.8"/>
<text text-anchor="middle" x="89.17" y="-413.4" font-family="Times,serif" font-size="14.00">x</text>
</g>
<!-- reject&#45;coin&#45;&gt;ready&#45;for&#45;insertion -->
<g id="edge6" class="edge">
<title>reject&#45;coin&#45;&gt;ready&#45;for&#45;insertion</title>
<path fill="none" stroke="black" d="M134.51,-480.07C136.71,-524.68 142.63,-645.08 145.31,-699.74"/>
<polygon fill="black" stroke="black" points="141.83,-700.24 145.82,-710.05 148.83,-699.89 141.83,-700.24"/>
<text text-anchor="middle" x="144.17" y="-591" font-family="Times,serif" font-size="14.00">x</text>
</g>
<!-- dispense&#45;candy&#45;&gt;ready&#45;for&#45;insertion -->
<g id="edge10" class="edge">
<title>dispense&#45;candy&#45;&gt;ready&#45;for&#45;insertion</title>
<path fill="none" stroke="black" d="M170.99,-302.62C182.63,-319.41 197.67,-346.15 197.67,-372.2 197.67,-640.6 197.67,-640.6 197.67,-640.6 197.67,-665.16 182.31,-688.91 168.45,-705.34"/>
<polygon fill="black" stroke="black" points="165.46,-703.43 161.43,-713.23 170.69,-708.08 165.46,-703.43"/>
<text text-anchor="middle" x="201.17" y="-502.2" font-family="Times,serif" font-size="14.00">x</text>
</g>
<!-- dispense&#45;candy&#45;&gt;request&#45;for&#45;refill -->
<g id="edge9" class="edge">
<title>dispense&#45;candy&#45;&gt;request&#45;for&#45;refill</title>
<path fill="none" stroke="black" d="M165.38,-266.25C171.01,-253.73 178.73,-236.53 185.1,-222.36"/>
<polygon fill="black" stroke="black" points="188.34,-223.68 189.25,-213.12 181.96,-220.81 188.34,-223.68"/>
<text text-anchor="middle" x="183.17" y="-235.8" font-family="Times,serif" font-size="14.00">y</text>
</g>
<!-- refill&#45;&gt;candy&#45;storage -->
<g id="edge12" class="edge">
<title>refill&#45;&gt;candy&#45;storage</title>
<path fill="none" stroke="black" d="M188.97,-88.65C183.34,-76.13 175.62,-58.93 169.25,-44.76"/>
<polygon fill="black" stroke="black" points="172.39,-43.21 165.1,-35.52 166,-46.08 172.39,-43.21"/>
<text text-anchor="middle" x="183.17" y="-58.2" font-family="Times,serif" font-size="14.00">y</text>
</g>
</g>
</svg>
