<?xml version="1.0" encoding="UTF-8" standalone="no"?>
<!DOCTYPE svg PUBLIC "-//W3C//DTD SVG 1.1//EN"
 "http://www.w3.org/Graphics/SVG/1.1/DTD/svg11.dtd">
<!-- Generated by graphviz version 5.0.0 (20220707.2145)
 -->
<!-- Title: G Pages: 1 -->
<svg width="292pt" height="399pt"
 viewBox="0.00 0.00 291.90 399.20" xmlns="http://www.w3.org/2000/svg" xmlns:xlink="http://www.w3.org/1999/xlink">
<g id="graph0" class="graph" transform="scale(1 1) rotate(0) translate(4 395.2)">
<title>G</title>
<polygon fill="white" stroke="transparent" points="-4,4 -4,-395.2 287.9,-395.2 287.9,4 -4,4"/>
<!-- U1 -->
<g id="node1" class="node">
<title>U1</title>
<ellipse fill="none" stroke="black" cx="176" cy="-373.2" rx="27" ry="18"/>
</g>
<!-- half&#45;sup&#45;eq&#45;ten -->
<g id="node9" class="node">
<title>half&#45;sup&#45;eq&#45;ten</title>
<polygon fill="none" stroke="black" points="204.69,-302.4 137.31,-302.4 137.31,-266.4 204.69,-266.4 204.69,-302.4"/>
<text text-anchor="middle" x="171" y="-280.2" font-family="Times,serif" font-size="14.00">x+y&gt;=10</text>
</g>
<!-- U1&#45;&gt;half&#45;sup&#45;eq&#45;ten -->
<g id="edge1" class="edge">
<title>U1&#45;&gt;half&#45;sup&#45;eq&#45;ten</title>
<path fill="none" stroke="black" d="M172.49,-355.18C171.47,-349.49 170.5,-343.1 170,-337.2 169.33,-329.31 169.24,-320.73 169.41,-312.86"/>
<polygon fill="black" stroke="black" points="172.91,-312.81 169.77,-302.7 165.91,-312.57 172.91,-312.81"/>
<text text-anchor="middle" x="173.5" y="-324.6" font-family="Times,serif" font-size="14.00">x</text>
</g>
<!-- half&#45;inf&#45;ten -->
<g id="node10" class="node">
<title>half&#45;inf&#45;ten</title>
<polygon fill="none" stroke="black" points="283.79,-302.4 224.21,-302.4 224.21,-266.4 283.79,-266.4 283.79,-302.4"/>
<text text-anchor="middle" x="254" y="-280.2" font-family="Times,serif" font-size="14.00">x+y&lt;10</text>
</g>
<!-- U1&#45;&gt;half&#45;inf&#45;ten -->
<g id="edge5" class="edge">
<title>U1&#45;&gt;half&#45;inf&#45;ten</title>
<path fill="none" stroke="black" d="M181.05,-355.44C184.94,-344.56 191.16,-330.58 200,-320.4 204.53,-315.18 210.02,-310.45 215.74,-306.26"/>
<polygon fill="black" stroke="black" points="217.88,-309.03 224.2,-300.53 213.96,-303.24 217.88,-309.03"/>
<text text-anchor="middle" x="203.5" y="-324.6" font-family="Times,serif" font-size="14.00">x</text>
</g>
<!-- U2 -->
<g id="node2" class="node">
<title>U2</title>
<ellipse fill="none" stroke="black" cx="252" cy="-373.2" rx="27" ry="18"/>
</g>
<!-- U2&#45;&gt;half&#45;sup&#45;eq&#45;ten -->
<g id="edge2" class="edge">
<title>U2&#45;&gt;half&#45;sup&#45;eq&#45;ten</title>
<path fill="none" stroke="black" d="M238.56,-357.12C229.23,-346.71 216.47,-332.62 205,-320.4 201.85,-317.04 198.5,-313.54 195.19,-310.09"/>
<polygon fill="black" stroke="black" points="197.54,-307.48 188.07,-302.73 192.51,-312.35 197.54,-307.48"/>
<text text-anchor="middle" x="223.5" y="-324.6" font-family="Times,serif" font-size="14.00">y</text>
</g>
<!-- U2&#45;&gt;half&#45;inf&#45;ten -->
<g id="edge6" class="edge">
<title>U2&#45;&gt;half&#45;inf&#45;ten</title>
<path fill="none" stroke="black" d="M252.4,-355.05C252.67,-342.92 253.05,-326.42 253.38,-312.52"/>
<polygon fill="black" stroke="black" points="256.87,-312.59 253.61,-302.51 249.88,-312.43 256.87,-312.59"/>
<text text-anchor="middle" x="256.5" y="-324.6" font-family="Times,serif" font-size="14.00">y</text>
</g>
<!-- T1 -->
<g id="node3" class="node">
<title>T1</title>
<ellipse fill="none" stroke="black" cx="27" cy="-195.6" rx="27" ry="18"/>
</g>
<!-- full&#45;sup&#45;eq&#45;ten -->
<g id="node11" class="node">
<title>full&#45;sup&#45;eq&#45;ten</title>
<polygon fill="none" stroke="black" points="176.8,-124.8 95.2,-124.8 95.2,-88.8 176.8,-88.8 176.8,-124.8"/>
<text text-anchor="middle" x="136" y="-102.6" font-family="Times,serif" font-size="14.00">x+y+z&gt;=10</text>
</g>
<!-- T1&#45;&gt;full&#45;sup&#45;eq&#45;ten -->
<g id="edge9" class="edge">
<title>T1&#45;&gt;full&#45;sup&#45;eq&#45;ten</title>
<path fill="none" stroke="black" d="M44.03,-181.04C60.77,-167.71 86.64,-147.11 106.68,-131.15"/>
<polygon fill="black" stroke="black" points="108.95,-133.81 114.6,-124.85 104.59,-128.34 108.95,-133.81"/>
<text text-anchor="middle" x="95.5" y="-147" font-family="Times,serif" font-size="14.00">x</text>
</g>
<!-- full&#45;inf&#45;ten -->
<g id="node12" class="node">
<title>full&#45;inf&#45;ten</title>
<polygon fill="none" stroke="black" points="76.9,-124.8 3.1,-124.8 3.1,-88.8 76.9,-88.8 76.9,-124.8"/>
<text text-anchor="middle" x="40" y="-102.6" font-family="Times,serif" font-size="14.00">x+y+z&lt;10</text>
</g>
<!-- T1&#45;&gt;full&#45;inf&#45;ten -->
<g id="edge14" class="edge">
<title>T1&#45;&gt;full&#45;inf&#45;ten</title>
<path fill="none" stroke="black" d="M26,-177.2C25.75,-167.09 26,-154.14 28,-142.8 28.48,-140.11 29.13,-137.34 29.88,-134.6"/>
<polygon fill="black" stroke="black" points="33.25,-135.56 32.93,-124.97 26.57,-133.44 33.25,-135.56"/>
<text text-anchor="middle" x="31.5" y="-147" font-family="Times,serif" font-size="14.00">x</text>
</g>
<!-- T2 -->
<g id="node4" class="node">
<title>T2</title>
<ellipse fill="none" stroke="black" cx="100" cy="-195.6" rx="27" ry="18"/>
</g>
<!-- T2&#45;&gt;full&#45;sup&#45;eq&#45;ten -->
<g id="edge10" class="edge">
<title>T2&#45;&gt;full&#45;sup&#45;eq&#45;ten</title>
<path fill="none" stroke="black" d="M105.25,-177.58C108.56,-167.36 113.13,-154.18 118,-142.8 119.23,-139.94 120.58,-136.99 121.99,-134.07"/>
<polygon fill="black" stroke="black" points="125.18,-135.52 126.54,-125.02 118.92,-132.38 125.18,-135.52"/>
<text text-anchor="middle" x="121.5" y="-147" font-family="Times,serif" font-size="14.00">y</text>
</g>
<!-- T2&#45;&gt;full&#45;inf&#45;ten -->
<g id="edge15" class="edge">
<title>T2&#45;&gt;full&#45;inf&#45;ten</title>
<path fill="none" stroke="black" d="M81.25,-182.45C73.16,-176.41 64.16,-168.5 58,-159.6 52.92,-152.25 49.14,-143.33 46.4,-134.98"/>
<polygon fill="black" stroke="black" points="49.71,-133.83 43.55,-125.21 42.99,-135.79 49.71,-133.83"/>
<text text-anchor="middle" x="61.5" y="-147" font-family="Times,serif" font-size="14.00">y</text>
</g>
<!-- C1 -->
<g id="node5" class="node">
<title>C1</title>
<ellipse fill="none" stroke="black" cx="173" cy="-195.6" rx="27" ry="18"/>
</g>
<!-- C1&#45;&gt;full&#45;sup&#45;eq&#45;ten -->
<g id="edge11" class="edge">
<title>C1&#45;&gt;full&#45;sup&#45;eq&#45;ten</title>
<path fill="none" stroke="black" d="M166.38,-177.73C162.33,-167.56 156.99,-154.38 152,-142.8 150.77,-139.95 149.46,-136.98 148.14,-134.02"/>
<polygon fill="black" stroke="black" points="151.28,-132.48 143.96,-124.82 144.91,-135.38 151.28,-132.48"/>
<text text-anchor="middle" x="162.11" y="-147" font-family="Times,serif" font-size="14.00">z</text>
</g>
<!-- C1&#45;&gt;full&#45;inf&#45;ten -->
<g id="edge16" class="edge">
<title>C1&#45;&gt;full&#45;inf&#45;ten</title>
<path fill="none" stroke="black" d="M161.19,-179.38C151.81,-168.1 137.84,-152.98 123,-142.8 116.38,-138.26 101.71,-131.73 86.52,-125.54"/>
<polygon fill="black" stroke="black" points="87.65,-122.22 77.07,-121.75 85.05,-128.72 87.65,-122.22"/>
<text text-anchor="middle" x="146.11" y="-147" font-family="Times,serif" font-size="14.00">z</text>
</g>
<!-- S1 -->
<g id="node6" class="node">
<title>S1</title>
<ellipse fill="none" stroke="black" cx="252" cy="-195.6" rx="27" ry="18"/>
<text text-anchor="middle" x="252" y="-191.4" font-family="Times,serif" font-size="14.00">2</text>
</g>
<!-- C2 -->
<g id="node7" class="node">
<title>C2</title>
<ellipse fill="none" stroke="black" cx="52" cy="-18" rx="27" ry="18"/>
<text text-anchor="middle" x="52" y="-13.8" font-family="Times,serif" font-size="14.00">0</text>
</g>
<!-- S2 -->
<g id="node8" class="node">
<title>S2</title>
<ellipse fill="none" stroke="black" cx="127" cy="-18" rx="27" ry="18"/>
<text text-anchor="middle" x="127" y="-13.8" font-family="Times,serif" font-size="14.00">3</text>
</g>
<!-- half&#45;sup&#45;eq&#45;ten&#45;&gt;C1 -->
<g id="edge3" class="edge">
<title>half&#45;sup&#45;eq&#45;ten&#45;&gt;C1</title>
<path fill="none" stroke="black" d="M171.4,-266.25C171.67,-254.12 172.05,-237.62 172.38,-223.72"/>
<polygon fill="black" stroke="black" points="175.87,-223.79 172.61,-213.71 168.88,-223.63 175.87,-223.79"/>
<text text-anchor="middle" x="176.11" y="-235.8" font-family="Times,serif" font-size="14.00">c</text>
</g>
<!-- half&#45;sup&#45;eq&#45;ten&#45;&gt;S1 -->
<g id="edge4" class="edge">
<title>half&#45;sup&#45;eq&#45;ten&#45;&gt;S1</title>
<path fill="none" stroke="black" d="M179.42,-266.38C185.22,-255.68 193.63,-241.97 203.34,-231.6 209.24,-225.3 216.43,-219.4 223.45,-214.32"/>
<polygon fill="black" stroke="black" points="225.89,-216.89 232.14,-208.33 221.92,-211.12 225.89,-216.89"/>
<text text-anchor="middle" x="206.33" y="-235.8" font-family="Times,serif" font-size="14.00">r</text>
</g>
<!-- half&#45;inf&#45;ten&#45;&gt;C1 -->
<g id="edge7" class="edge">
<title>half&#45;inf&#45;ten&#45;&gt;C1</title>
<path fill="none" stroke="black" d="M238,-266.25C225.39,-252.74 207.72,-233.8 193.98,-219.08"/>
<polygon fill="black" stroke="black" points="196.19,-216.32 186.81,-211.4 191.08,-221.1 196.19,-216.32"/>
<text text-anchor="middle" x="224.11" y="-235.8" font-family="Times,serif" font-size="14.00">c</text>
</g>
<!-- half&#45;inf&#45;ten&#45;&gt;S1 -->
<g id="edge8" class="edge">
<title>half&#45;inf&#45;ten&#45;&gt;S1</title>
<path fill="none" stroke="black" d="M253.6,-266.25C253.33,-254.12 252.95,-237.62 252.62,-223.72"/>
<polygon fill="black" stroke="black" points="256.12,-223.63 252.39,-213.71 249.13,-223.79 256.12,-223.63"/>
<text text-anchor="middle" x="255.72" y="-235.8" font-family="Times,serif" font-size="14.00">s</text>
</g>
<!-- full&#45;sup&#45;eq&#45;ten&#45;&gt;C2 -->
<g id="edge12" class="edge">
<title>full&#45;sup&#45;eq&#45;ten&#45;&gt;C2</title>
<path fill="none" stroke="black" d="M119.4,-88.65C106.13,-74.94 87.44,-55.62 73.1,-40.8"/>
<polygon fill="black" stroke="black" points="75.52,-38.27 66.05,-33.52 70.49,-43.14 75.52,-38.27"/>
<text text-anchor="middle" x="105.11" y="-58.2" font-family="Times,serif" font-size="14.00">c</text>
</g>
<!-- full&#45;sup&#45;eq&#45;ten&#45;&gt;S2 -->
<g id="edge13" class="edge">
<title>full&#45;sup&#45;eq&#45;ten&#45;&gt;S2</title>
<path fill="none" stroke="black" d="M134.22,-88.65C132.96,-76.52 131.25,-60.02 129.81,-46.12"/>
<polygon fill="black" stroke="black" points="133.29,-45.7 128.77,-36.11 126.32,-46.42 133.29,-45.7"/>
<text text-anchor="middle" x="135.33" y="-58.2" font-family="Times,serif" font-size="14.00">r</text>
</g>
<!-- full&#45;inf&#45;ten&#45;&gt;C2 -->
<g id="edge17" class="edge">
<title>full&#45;inf&#45;ten&#45;&gt;C2</title>
<path fill="none" stroke="black" d="M42.37,-88.65C44.05,-76.52 46.33,-60.02 48.25,-46.12"/>
<polygon fill="black" stroke="black" points="51.73,-46.5 49.63,-36.11 44.8,-45.54 51.73,-46.5"/>
<text text-anchor="middle" x="51.11" y="-58.2" font-family="Times,serif" font-size="14.00">c</text>
</g>
<!-- full&#45;inf&#45;ten&#45;&gt;S2 -->
<g id="edge18" class="edge">
<title>full&#45;inf&#45;ten&#45;&gt;S2</title>
<path fill="none" stroke="black" d="M51.75,-88.55C59.35,-78 69.79,-64.56 80.55,-54 86.53,-48.13 93.51,-42.39 100.22,-37.31"/>
<polygon fill="black" stroke="black" points="102.47,-40 108.47,-31.27 98.34,-34.35 102.47,-40"/>
<text text-anchor="middle" x="83.72" y="-58.2" font-family="Times,serif" font-size="14.00">s</text>
</g>
</g>
</svg>
