<?xml version="1.0" encoding="UTF-8" standalone="no"?>
<!DOCTYPE svg PUBLIC "-//W3C//DTD SVG 1.1//EN"
 "http://www.w3.org/Graphics/SVG/1.1/DTD/svg11.dtd">
<!-- Generated by graphviz version 5.0.0 (20220707.2145)
 -->
<!-- Title: G Pages: 1 -->
<svg width="463pt" height="222pt"
 viewBox="0.00 0.00 462.62 221.60" xmlns="http://www.w3.org/2000/svg" xmlns:xlink="http://www.w3.org/1999/xlink">
<g id="graph0" class="graph" transform="scale(1 1) rotate(0) translate(4 217.6)">
<title>G</title>
<polygon fill="white" stroke="transparent" points="-4,4 -4,-217.6 458.62,-217.6 458.62,4 -4,4"/>
<!-- system -->
<g id="node1" class="node">
<title>system</title>
<ellipse fill="none" stroke="black" cx="229.22" cy="-195.6" rx="37.72" ry="18"/>
<text text-anchor="middle" x="229.22" y="-191.4" font-family="Times,serif" font-size="14.00">system</text>
</g>
<!-- G1&#45;1.json -->
<g id="node2" class="node">
<title>G1&#45;1.json</title>
<ellipse fill="none" stroke="black" cx="54.22" cy="-106.8" rx="49.29" ry="18"/>
<text text-anchor="middle" x="54.22" y="-102.6" font-family="Times,serif" font-size="14.00">G1&#45;1.json</text>
</g>
<!-- system&#45;&gt;G1&#45;1.json -->
<g id="edge1" class="edge">
<title>system&#45;&gt;G1&#45;1.json</title>
<path fill="none" stroke="black" d="M195.19,-187.21C172.76,-181.53 143.2,-172.45 119.14,-159.6 104.57,-151.82 90.04,-140.63 78.43,-130.64"/>
<polygon fill="black" stroke="black" points="80.71,-127.97 70.9,-123.97 76.07,-133.22 80.71,-127.97"/>
<text text-anchor="middle" x="148.77" y="-147" font-family="Times,serif" font-size="14.00">take&#45;home</text>
</g>
<!-- G1&#45;2.json -->
<g id="node3" class="node">
<title>G1&#45;2.json</title>
<ellipse fill="none" stroke="black" cx="171.22" cy="-106.8" rx="49.29" ry="18"/>
<text text-anchor="middle" x="171.22" y="-102.6" font-family="Times,serif" font-size="14.00">G1&#45;2.json</text>
</g>
<!-- system&#45;&gt;G1&#45;2.json -->
<g id="edge2" class="edge">
<title>system&#45;&gt;G1&#45;2.json</title>
<path fill="none" stroke="black" d="M209.47,-180.19C202.61,-174.41 195.35,-167.29 190.14,-159.6 185.1,-152.16 181.22,-143.22 178.31,-134.87"/>
<polygon fill="black" stroke="black" points="181.59,-133.61 175.25,-125.12 174.91,-135.71 181.59,-133.61"/>
<text text-anchor="middle" x="219.77" y="-147" font-family="Times,serif" font-size="14.00">take&#45;home</text>
</g>
<!-- G1&#45;3.json -->
<g id="node4" class="node">
<title>G1&#45;3.json</title>
<ellipse fill="none" stroke="black" cx="288.22" cy="-106.8" rx="49.29" ry="18"/>
<text text-anchor="middle" x="288.22" y="-102.6" font-family="Times,serif" font-size="14.00">G1&#45;3.json</text>
</g>
<!-- system&#45;&gt;G1&#45;3.json -->
<g id="edge3" class="edge">
<title>system&#45;&gt;G1&#45;3.json</title>
<path fill="none" stroke="black" d="M240.32,-178.27C249,-165.5 261.22,-147.53 271.14,-132.93"/>
<polygon fill="black" stroke="black" points="274.25,-134.59 276.98,-124.35 268.46,-130.65 274.25,-134.59"/>
<text text-anchor="middle" x="292.77" y="-147" font-family="Times,serif" font-size="14.00">take&#45;home</text>
</g>
<!-- G1&#45;4.json -->
<g id="node5" class="node">
<title>G1&#45;4.json</title>
<ellipse fill="none" stroke="black" cx="405.22" cy="-106.8" rx="49.29" ry="18"/>
<text text-anchor="middle" x="405.22" y="-102.6" font-family="Times,serif" font-size="14.00">G1&#45;4.json</text>
</g>
<!-- system&#45;&gt;G1&#45;4.json -->
<g id="edge4" class="edge">
<title>system&#45;&gt;G1&#45;4.json</title>
<path fill="none" stroke="black" d="M260.57,-185.35C279.95,-179.14 305.08,-170.16 326.22,-159.6 343.48,-150.98 361.55,-139.35 376.05,-129.29"/>
<polygon fill="black" stroke="black" points="378.42,-131.9 384.57,-123.28 374.38,-126.18 378.42,-131.9"/>
<text text-anchor="middle" x="384.77" y="-147" font-family="Times,serif" font-size="14.00">take&#45;home</text>
</g>
<!-- G11&#45;1.json -->
<g id="node6" class="node">
<title>G11&#45;1.json</title>
<ellipse fill="none" stroke="black" cx="54.22" cy="-18" rx="54.45" ry="18"/>
<text text-anchor="middle" x="54.22" y="-13.8" font-family="Times,serif" font-size="14.00">G11&#45;1.json</text>
</g>
<!-- G1&#45;1.json&#45;&gt;G11&#45;1.json -->
<g id="edge5" class="edge">
<title>G1&#45;1.json&#45;&gt;G11&#45;1.json</title>
<path fill="none" stroke="black" d="M54.22,-88.65C54.22,-76.52 54.22,-60.02 54.22,-46.12"/>
<polygon fill="black" stroke="black" points="57.72,-46.11 54.22,-36.11 50.72,-46.11 57.72,-46.11"/>
<text text-anchor="middle" x="83.77" y="-58.2" font-family="Times,serif" font-size="14.00">take&#45;home</text>
</g>
<!-- G7&#45;1.json -->
<g id="node7" class="node">
<title>G7&#45;1.json</title>
<ellipse fill="none" stroke="black" cx="288.22" cy="-18" rx="49.29" ry="18"/>
<text text-anchor="middle" x="288.22" y="-13.8" font-family="Times,serif" font-size="14.00">G7&#45;1.json</text>
</g>
<!-- G1&#45;3.json&#45;&gt;G7&#45;1.json -->
<g id="edge6" class="edge">
<title>G1&#45;3.json&#45;&gt;G7&#45;1.json</title>
<path fill="none" stroke="black" d="M288.22,-88.65C288.22,-76.52 288.22,-60.02 288.22,-46.12"/>
<polygon fill="black" stroke="black" points="291.72,-46.11 288.22,-36.11 284.72,-46.11 291.72,-46.11"/>
<text text-anchor="middle" x="317.77" y="-58.2" font-family="Times,serif" font-size="14.00">take&#45;home</text>
</g>
</g>
</svg>
