<?xml version="1.0" encoding="UTF-8" standalone="no"?>
<!DOCTYPE svg PUBLIC "-//W3C//DTD SVG 1.1//EN"
 "http://www.w3.org/Graphics/SVG/1.1/DTD/svg11.dtd">
<!-- Generated by graphviz version 5.0.0 (20220707.2145)
 -->
<!-- Title: G Pages: 1 -->
<svg width="268pt" height="310pt"
 viewBox="0.00 0.00 268.02 310.40" xmlns="http://www.w3.org/2000/svg" xmlns:xlink="http://www.w3.org/1999/xlink">
<g id="graph0" class="graph" transform="scale(1 1) rotate(0) translate(4 306.4)">
<title>G</title>
<polygon fill="white" stroke="transparent" points="-4,4 -4,-306.4 264.02,-306.4 264.02,4 -4,4"/>
<!-- system -->
<g id="node1" class="node">
<title>system</title>
<ellipse fill="none" stroke="black" cx="97.88" cy="-284.4" rx="37.72" ry="18"/>
<text text-anchor="middle" x="97.88" y="-280.2" font-family="Times,serif" font-size="14.00">system</text>
</g>
<!-- G1&#45;1 -->
<g id="node2" class="node">
<title>G1&#45;1</title>
<ellipse fill="none" stroke="black" cx="30.88" cy="-195.6" rx="30.77" ry="18"/>
<text text-anchor="middle" x="30.88" y="-191.4" font-family="Times,serif" font-size="14.00">G1&#45;1</text>
</g>
<!-- system&#45;&gt;G1&#45;1 -->
<g id="edge1" class="edge">
<title>system&#45;&gt;G1&#45;1</title>
<path fill="none" stroke="black" d="M77.5,-268.82C70.32,-263.03 62.58,-255.94 56.68,-248.4 50.65,-240.7 45.47,-231.36 41.37,-222.75"/>
<polygon fill="black" stroke="black" points="44.5,-221.16 37.22,-213.46 38.11,-224.02 44.5,-221.16"/>
<text text-anchor="middle" x="70.49" y="-235.8" font-family="Times,serif" font-size="14.00">refill</text>
</g>
<!-- G2&#45;1 -->
<g id="node3" class="node">
<title>G2&#45;1</title>
<ellipse fill="none" stroke="black" cx="97.88" cy="-106.8" rx="30.77" ry="18"/>
<text text-anchor="middle" x="97.88" y="-102.6" font-family="Times,serif" font-size="14.00">G2&#45;1</text>
</g>
<!-- system&#45;&gt;G2&#45;1 -->
<g id="edge2" class="edge">
<title>system&#45;&gt;G2&#45;1</title>
<path fill="none" stroke="black" d="M97.88,-266.24C97.88,-235.82 97.88,-172.18 97.88,-135.48"/>
<polygon fill="black" stroke="black" points="101.38,-135.03 97.88,-125.03 94.38,-135.03 101.38,-135.03"/>
<text text-anchor="middle" x="129.56" y="-191.4" font-family="Times,serif" font-size="14.00">accept coin</text>
</g>
<!-- G4&#45;1 -->
<g id="node4" class="node">
<title>G4&#45;1</title>
<ellipse fill="none" stroke="black" cx="143.88" cy="-18" rx="30.77" ry="18"/>
<text text-anchor="middle" x="143.88" y="-13.8" font-family="Times,serif" font-size="14.00">G4&#45;1</text>
</g>
<!-- system&#45;&gt;G4&#45;1 -->
<g id="edge3" class="edge">
<title>system&#45;&gt;G4&#45;1</title>
<path fill="none" stroke="black" d="M118.32,-269.18C134.38,-256.66 155.54,-236.82 164.88,-213.6 187.76,-156.73 167.97,-83.39 154.29,-45.02"/>
<polygon fill="black" stroke="black" points="157.55,-43.77 150.8,-35.61 150.99,-46.2 157.55,-43.77"/>
<text text-anchor="middle" x="217.45" y="-147" font-family="Times,serif" font-size="14.00">dispense candy</text>
</g>
<!-- G1&#45;1&#45;&gt;G2&#45;1 -->
<g id="edge4" class="edge">
<title>G1&#45;1&#45;&gt;G2&#45;1</title>
<path fill="none" stroke="black" d="M37.22,-177.74C41.7,-167.09 48.38,-153.4 56.68,-142.8 60.78,-137.56 65.77,-132.54 70.84,-128.02"/>
<polygon fill="black" stroke="black" points="73.35,-130.48 78.76,-121.37 68.85,-125.12 73.35,-130.48"/>
<text text-anchor="middle" x="70.49" y="-147" font-family="Times,serif" font-size="14.00">refill</text>
</g>
<!-- G2&#45;1&#45;&gt;G4&#45;1 -->
<g id="edge5" class="edge">
<title>G2&#45;1&#45;&gt;G4&#45;1</title>
<path fill="none" stroke="black" d="M106.54,-89.47C113.24,-76.82 122.65,-59.07 130.35,-44.54"/>
<polygon fill="black" stroke="black" points="133.52,-46.02 135.11,-35.55 127.34,-42.75 133.52,-46.02"/>
<text text-anchor="middle" x="138.49" y="-58.2" font-family="Times,serif" font-size="14.00">refill</text>
</g>
<!-- G4&#45;1&#45;&gt;G4&#45;1 -->
<g id="edge6" class="edge">
<title>G4&#45;1&#45;&gt;G4&#45;1</title>
<path fill="none" stroke="black" d="M171.52,-26.18C183.02,-26.74 192.77,-24.02 192.77,-18 192.77,-13.86 188.16,-11.28 181.54,-10.26"/>
<polygon fill="black" stroke="black" points="181.66,-6.76 171.52,-9.82 181.36,-13.75 181.66,-6.76"/>
<text text-anchor="middle" x="206.37" y="-13.8" font-family="Times,serif" font-size="14.00">refill</text>
</g>
</g>
</svg>
