<?xml version="1.0" encoding="UTF-8" standalone="no"?>
<!DOCTYPE svg PUBLIC "-//W3C//DTD SVG 1.1//EN"
 "http://www.w3.org/Graphics/SVG/1.1/DTD/svg11.dtd">
<!-- Generated by graphviz version 5.0.0 (20220707.2145)
 -->
<!-- Title: G Pages: 1 -->
<svg width="164pt" height="222pt"
 viewBox="0.00 0.00 163.78 221.60" xmlns="http://www.w3.org/2000/svg" xmlns:xlink="http://www.w3.org/1999/xlink">
<g id="graph0" class="graph" transform="scale(1 1) rotate(0) translate(4 217.6)">
<title>G</title>
<polygon fill="white" stroke="transparent" points="-4,4 -4,-217.6 159.78,-217.6 159.78,4 -4,4"/>
<!-- system -->
<g id="node1" class="node">
<title>system</title>
<ellipse fill="none" stroke="black" cx="67.88" cy="-195.6" rx="37.72" ry="18"/>
<text text-anchor="middle" x="67.88" y="-191.4" font-family="Times,serif" font-size="14.00">system</text>
</g>
<!-- G1&#45;1 -->
<g id="node2" class="node">
<title>G1&#45;1</title>
<ellipse fill="none" stroke="black" cx="30.88" cy="-106.8" rx="30.77" ry="18"/>
<text text-anchor="middle" x="30.88" y="-102.6" font-family="Times,serif" font-size="14.00">G1&#45;1</text>
</g>
<!-- system&#45;&gt;G1&#45;1 -->
<g id="edge1" class="edge">
<title>system&#45;&gt;G1&#45;1</title>
<path fill="none" stroke="black" d="M50.31,-179.45C44.87,-173.79 39.46,-166.94 36.2,-159.6 32.82,-152.02 31.18,-143.22 30.47,-135.04"/>
<polygon fill="black" stroke="black" points="33.96,-134.64 30,-124.81 26.96,-134.96 33.96,-134.64"/>
<text text-anchor="middle" x="62.73" y="-147" font-family="Times,serif" font-size="14.00">x+y&gt;=10</text>
</g>
<!-- G4&#45;1 -->
<g id="node3" class="node">
<title>G4&#45;1</title>
<ellipse fill="none" stroke="black" cx="63.88" cy="-18" rx="30.77" ry="18"/>
<text text-anchor="middle" x="63.88" y="-13.8" font-family="Times,serif" font-size="14.00">G4&#45;1</text>
</g>
<!-- system&#45;&gt;G4&#45;1 -->
<g id="edge2" class="edge">
<title>system&#45;&gt;G4&#45;1</title>
<path fill="none" stroke="black" d="M79.53,-178.28C82.92,-172.64 86.16,-166.09 87.88,-159.6 99.93,-114.24 101.78,-98.83 87.88,-54 86.69,-50.15 84.91,-46.35 82.85,-42.75"/>
<polygon fill="black" stroke="black" points="85.73,-40.76 77.33,-34.31 79.88,-44.59 85.73,-40.76"/>
<text text-anchor="middle" x="126.83" y="-102.6" font-family="Times,serif" font-size="14.00">x+y+z&lt;10</text>
</g>
<!-- G1&#45;1&#45;&gt;G4&#45;1 -->
<g id="edge3" class="edge">
<title>G1&#45;1&#45;&gt;G4&#45;1</title>
<path fill="none" stroke="black" d="M25.44,-88.81C23.04,-78.36 21.72,-64.93 26.46,-54 28.87,-48.46 32.63,-43.39 36.86,-38.94"/>
<polygon fill="black" stroke="black" points="39.32,-41.43 44.26,-32.06 34.56,-36.31 39.32,-41.43"/>
<text text-anchor="middle" x="57.59" y="-58.2" font-family="Times,serif" font-size="14.00">full&#45;inf&#45;ten</text>
</g>
</g>
</svg>
