<?xml version="1.0" encoding="UTF-8" standalone="no"?>
<!DOCTYPE svg PUBLIC "-//W3C//DTD SVG 1.1//EN"
 "http://www.w3.org/Graphics/SVG/1.1/DTD/svg11.dtd">
<!-- Generated by graphviz version 5.0.0 (20220707.2145)
 -->
<!-- Title: G Pages: 1 -->
<svg width="458pt" height="222pt"
 viewBox="0.00 0.00 457.79 221.60" xmlns="http://www.w3.org/2000/svg" xmlns:xlink="http://www.w3.org/1999/xlink">
<g id="graph0" class="graph" transform="scale(1 1) rotate(0) translate(4 217.6)">
<title>G</title>
<polygon fill="white" stroke="transparent" points="-4,4 -4,-217.6 453.79,-217.6 453.79,4 -4,4"/>
<!-- system -->
<g id="node1" class="node">
<title>system</title>
<ellipse fill="none" stroke="black" cx="216.4" cy="-195.6" rx="37.72" ry="18"/>
<text text-anchor="middle" x="216.4" y="-191.4" font-family="Times,serif" font-size="14.00">system</text>
</g>
<!-- G1&#45;1.json -->
<g id="node2" class="node">
<title>G1&#45;1.json</title>
<ellipse fill="none" stroke="black" cx="49.4" cy="-106.8" rx="49.29" ry="18"/>
<text text-anchor="middle" x="49.4" y="-102.6" font-family="Times,serif" font-size="14.00">G1&#45;1.json</text>
</g>
<!-- system&#45;&gt;G1&#45;1.json -->
<g id="edge1" class="edge">
<title>system&#45;&gt;G1&#45;1.json</title>
<path fill="none" stroke="black" d="M185.01,-185.21C166.28,-179.06 142.34,-170.2 122.31,-159.6 106.44,-151.2 90.02,-139.81 76.8,-129.86"/>
<polygon fill="black" stroke="black" points="78.67,-126.88 68.6,-123.57 74.4,-132.43 78.67,-126.88"/>
<text text-anchor="middle" x="151.94" y="-147" font-family="Times,serif" font-size="14.00">take&#45;home</text>
</g>
<!-- G1&#45;2.json -->
<g id="node3" class="node">
<title>G1&#45;2.json</title>
<ellipse fill="none" stroke="black" cx="283.4" cy="-106.8" rx="49.29" ry="18"/>
<text text-anchor="middle" x="283.4" y="-102.6" font-family="Times,serif" font-size="14.00">G1&#45;2.json</text>
</g>
<!-- system&#45;&gt;G1&#45;2.json -->
<g id="edge2" class="edge">
<title>system&#45;&gt;G1&#45;2.json</title>
<path fill="none" stroke="black" d="M233.81,-179.41C240.04,-173.55 246.88,-166.57 252.4,-159.6 258.7,-151.63 264.67,-142.27 269.67,-133.72"/>
<polygon fill="black" stroke="black" points="272.8,-135.28 274.66,-124.85 266.7,-131.84 272.8,-135.28"/>
<text text-anchor="middle" x="293.94" y="-147" font-family="Times,serif" font-size="14.00">take&#45;home</text>
</g>
<!-- G1&#45;3.json -->
<g id="node4" class="node">
<title>G1&#45;3.json</title>
<ellipse fill="none" stroke="black" cx="400.4" cy="-106.8" rx="49.29" ry="18"/>
<text text-anchor="middle" x="400.4" y="-102.6" font-family="Times,serif" font-size="14.00">G1&#45;3.json</text>
</g>
<!-- system&#45;&gt;G1&#45;3.json -->
<g id="edge3" class="edge">
<title>system&#45;&gt;G1&#45;3.json</title>
<path fill="none" stroke="black" d="M249.98,-186.93C272.56,-181.08 302.61,-171.92 327.4,-159.6 343.61,-151.54 360.18,-140.09 373.43,-130.01"/>
<polygon fill="black" stroke="black" points="375.88,-132.53 381.62,-123.62 371.58,-127.01 375.88,-132.53"/>
<text text-anchor="middle" x="384.94" y="-147" font-family="Times,serif" font-size="14.00">take&#45;home</text>
</g>
<!-- G1&#45;4.json -->
<g id="node5" class="node">
<title>G1&#45;4.json</title>
<ellipse fill="none" stroke="black" cx="166.4" cy="-106.8" rx="49.29" ry="18"/>
<text text-anchor="middle" x="166.4" y="-102.6" font-family="Times,serif" font-size="14.00">G1&#45;4.json</text>
</g>
<!-- system&#45;&gt;G1&#45;4.json -->
<g id="edge4" class="edge">
<title>system&#45;&gt;G1&#45;4.json</title>
<path fill="none" stroke="black" d="M205,-178.09C201.16,-172.32 196.93,-165.75 193.31,-159.6 188.46,-151.35 183.53,-142.13 179.23,-133.79"/>
<polygon fill="black" stroke="black" points="182.34,-132.17 174.69,-124.84 176.09,-135.34 182.34,-132.17"/>
<text text-anchor="middle" x="222.94" y="-147" font-family="Times,serif" font-size="14.00">take&#45;home</text>
</g>
<!-- G11&#45;1.json -->
<g id="node6" class="node">
<title>G11&#45;1.json</title>
<ellipse fill="none" stroke="black" cx="148.4" cy="-18" rx="54.45" ry="18"/>
<text text-anchor="middle" x="148.4" y="-13.8" font-family="Times,serif" font-size="14.00">G11&#45;1.json</text>
</g>
<!-- G1&#45;1.json&#45;&gt;G11&#45;1.json -->
<g id="edge5" class="edge">
<title>G1&#45;1.json&#45;&gt;G11&#45;1.json</title>
<path fill="none" stroke="black" d="M61.33,-89.27C69.58,-78.5 81.22,-64.53 93.31,-54 99.38,-48.71 106.32,-43.67 113.18,-39.13"/>
<polygon fill="black" stroke="black" points="115.19,-42 121.76,-33.69 111.44,-36.09 115.19,-42"/>
<text text-anchor="middle" x="122.94" y="-58.2" font-family="Times,serif" font-size="14.00">take&#45;home</text>
</g>
<!-- G7&#45;1.json -->
<g id="node7" class="node">
<title>G7&#45;1.json</title>
<ellipse fill="none" stroke="black" cx="317.4" cy="-18" rx="49.29" ry="18"/>
<text text-anchor="middle" x="317.4" y="-13.8" font-family="Times,serif" font-size="14.00">G7&#45;1.json</text>
</g>
<!-- G1&#45;2.json&#45;&gt;G7&#45;1.json -->
<g id="edge8" class="edge">
<title>G1&#45;2.json&#45;&gt;G7&#45;1.json</title>
<path fill="none" stroke="black" d="M290.11,-88.65C294.91,-76.41 301.46,-59.69 306.93,-45.71"/>
<polygon fill="black" stroke="black" points="310.3,-46.7 310.69,-36.11 303.79,-44.15 310.3,-46.7"/>
<text text-anchor="middle" x="333.94" y="-58.2" font-family="Times,serif" font-size="14.00">take&#45;home</text>
</g>
<!-- G1&#45;3.json&#45;&gt;G7&#45;1.json -->
<g id="edge7" class="edge">
<title>G1&#45;3.json&#45;&gt;G7&#45;1.json</title>
<path fill="none" stroke="black" d="M391.79,-88.75C385.86,-78.03 377.28,-64.32 367.4,-54 362.47,-48.86 356.69,-44 350.84,-39.64"/>
<polygon fill="black" stroke="black" points="352.49,-36.53 342.3,-33.62 348.46,-42.25 352.49,-36.53"/>
<text text-anchor="middle" x="409.94" y="-58.2" font-family="Times,serif" font-size="14.00">take&#45;home</text>
</g>
<!-- G1&#45;4.json&#45;&gt;G11&#45;1.json -->
<g id="edge6" class="edge">
<title>G1&#45;4.json&#45;&gt;G11&#45;1.json</title>
<path fill="none" stroke="black" d="M162.84,-88.65C160.32,-76.52 156.9,-60.02 154.02,-46.12"/>
<polygon fill="black" stroke="black" points="157.4,-45.19 151.94,-36.11 150.55,-46.62 157.4,-45.19"/>
<text text-anchor="middle" x="188.94" y="-58.2" font-family="Times,serif" font-size="14.00">take&#45;home</text>
</g>
</g>
</svg>
