<?xml version="1.0" encoding="UTF-8" standalone="no"?>
<!DOCTYPE svg PUBLIC "-//W3C//DTD SVG 1.1//EN"
 "http://www.w3.org/Graphics/SVG/1.1/DTD/svg11.dtd">
<!-- Generated by graphviz version 5.0.0 (20220707.2145)
 -->
<!-- Title: G Pages: 1 -->
<svg width="330pt" height="222pt"
 viewBox="0.00 0.00 329.97 221.60" xmlns="http://www.w3.org/2000/svg" xmlns:xlink="http://www.w3.org/1999/xlink">
<g id="graph0" class="graph" transform="scale(1 1) rotate(0) translate(4 217.6)">
<title>G</title>
<polygon fill="white" stroke="transparent" points="-4,4 -4,-217.6 325.97,-217.6 325.97,4 -4,4"/>
<!-- system -->
<g id="node1" class="node">
<title>system</title>
<ellipse fill="none" stroke="black" cx="153.88" cy="-195.6" rx="37.72" ry="18"/>
<text text-anchor="middle" x="153.88" y="-191.4" font-family="Times,serif" font-size="14.00">system</text>
</g>
<!-- G1&#45;1 -->
<g id="node2" class="node">
<title>G1&#45;1</title>
<ellipse fill="none" stroke="black" cx="30.88" cy="-106.8" rx="30.77" ry="18"/>
<text text-anchor="middle" x="30.88" y="-102.6" font-family="Times,serif" font-size="14.00">G1&#45;1</text>
</g>
<!-- system&#45;&gt;G1&#45;1 -->
<g id="edge1" class="edge">
<title>system&#45;&gt;G1&#45;1</title>
<path fill="none" stroke="black" d="M116.56,-191.89C92.59,-188.19 62.53,-179.56 43.8,-159.6 37.6,-152.99 34.25,-143.88 32.48,-135.14"/>
<polygon fill="black" stroke="black" points="35.94,-134.61 31.05,-125.22 29.01,-135.61 35.94,-134.61"/>
<text text-anchor="middle" x="73.42" y="-147" font-family="Times,serif" font-size="14.00">take&#45;home</text>
</g>
<!-- G1&#45;2 -->
<g id="node3" class="node">
<title>G1&#45;2</title>
<ellipse fill="none" stroke="black" cx="194.88" cy="-106.8" rx="30.77" ry="18"/>
<text text-anchor="middle" x="194.88" y="-102.6" font-family="Times,serif" font-size="14.00">G1&#45;2</text>
</g>
<!-- system&#45;&gt;G1&#45;2 -->
<g id="edge2" class="edge">
<title>system&#45;&gt;G1&#45;2</title>
<path fill="none" stroke="black" d="M163.3,-178.03C166.46,-172.26 169.94,-165.7 172.88,-159.6 176.81,-151.47 180.76,-142.45 184.22,-134.26"/>
<polygon fill="black" stroke="black" points="187.55,-135.36 188.15,-124.78 181.09,-132.68 187.55,-135.36"/>
<text text-anchor="middle" x="210.42" y="-147" font-family="Times,serif" font-size="14.00">take&#45;home</text>
</g>
<!-- G1&#45;3 -->
<g id="node4" class="node">
<title>G1&#45;3</title>
<ellipse fill="none" stroke="black" cx="276.88" cy="-106.8" rx="30.77" ry="18"/>
<text text-anchor="middle" x="276.88" y="-102.6" font-family="Times,serif" font-size="14.00">G1&#45;3</text>
</g>
<!-- system&#45;&gt;G1&#45;3 -->
<g id="edge3" class="edge">
<title>system&#45;&gt;G1&#45;3</title>
<path fill="none" stroke="black" d="M187.31,-187.06C205.5,-181.69 227.55,-173 243.88,-159.6 252.41,-152.6 259.44,-142.79 264.79,-133.59"/>
<polygon fill="black" stroke="black" points="267.9,-135.18 269.56,-124.72 261.74,-131.87 267.9,-135.18"/>
<text text-anchor="middle" x="288.42" y="-147" font-family="Times,serif" font-size="14.00">take&#45;home</text>
</g>
<!-- G1&#45;4 -->
<g id="node5" class="node">
<title>G1&#45;4</title>
<ellipse fill="none" stroke="black" cx="112.88" cy="-106.8" rx="30.77" ry="18"/>
<text text-anchor="middle" x="112.88" y="-102.6" font-family="Times,serif" font-size="14.00">G1&#45;4</text>
</g>
<!-- system&#45;&gt;G1&#45;4 -->
<g id="edge4" class="edge">
<title>system&#45;&gt;G1&#45;4</title>
<path fill="none" stroke="black" d="M129.92,-181.59C122.01,-175.96 114.13,-168.58 109.8,-159.6 106.16,-152.07 105.57,-143.19 106.29,-134.93"/>
<polygon fill="black" stroke="black" points="109.77,-135.36 107.77,-124.95 102.84,-134.33 109.77,-135.36"/>
<text text-anchor="middle" x="139.42" y="-147" font-family="Times,serif" font-size="14.00">take&#45;home</text>
</g>
<!-- G2&#45;1 -->
<g id="node6" class="node">
<title>G2&#45;1</title>
<ellipse fill="none" stroke="black" cx="71.88" cy="-18" rx="30.77" ry="18"/>
<text text-anchor="middle" x="71.88" y="-13.8" font-family="Times,serif" font-size="14.00">G2&#45;1</text>
</g>
<!-- G1&#45;1&#45;&gt;G2&#45;1 -->
<g id="edge5" class="edge">
<title>G1&#45;1&#45;&gt;G2&#45;1</title>
<path fill="none" stroke="black" d="M27.8,-88.69C26.71,-78.2 26.79,-64.77 31.8,-54 34.56,-48.06 38.87,-42.73 43.65,-38.12"/>
<polygon fill="black" stroke="black" points="46.07,-40.65 51.4,-31.5 41.53,-35.33 46.07,-40.65"/>
<text text-anchor="middle" x="61.42" y="-58.2" font-family="Times,serif" font-size="14.00">take&#45;home</text>
</g>
<!-- G4&#45;1 -->
<g id="node7" class="node">
<title>G4&#45;1</title>
<ellipse fill="none" stroke="black" cx="235.88" cy="-18" rx="30.77" ry="18"/>
<text text-anchor="middle" x="235.88" y="-13.8" font-family="Times,serif" font-size="14.00">G4&#45;1</text>
</g>
<!-- G1&#45;2&#45;&gt;G4&#45;1 -->
<g id="edge6" class="edge">
<title>G1&#45;2&#45;&gt;G4&#45;1</title>
<path fill="none" stroke="black" d="M191.8,-88.69C190.71,-78.2 190.79,-64.77 195.8,-54 198.56,-48.06 202.87,-42.73 207.65,-38.12"/>
<polygon fill="black" stroke="black" points="210.07,-40.65 215.4,-31.5 205.53,-35.33 210.07,-40.65"/>
<text text-anchor="middle" x="225.42" y="-58.2" font-family="Times,serif" font-size="14.00">take&#45;home</text>
</g>
<!-- G1&#45;3&#45;&gt;G4&#45;1 -->
<g id="edge7" class="edge">
<title>G1&#45;3&#45;&gt;G4&#45;1</title>
<path fill="none" stroke="black" d="M270.15,-88.82C265.99,-78.62 260.4,-65.44 254.88,-54 253.33,-50.79 251.64,-47.45 249.92,-44.17"/>
<polygon fill="black" stroke="black" points="252.92,-42.36 245.1,-35.21 246.76,-45.68 252.92,-42.36"/>
<text text-anchor="middle" x="292.42" y="-58.2" font-family="Times,serif" font-size="14.00">take&#45;home</text>
</g>
<!-- G1&#45;4&#45;&gt;G2&#45;1 -->
<g id="edge8" class="edge">
<title>G1&#45;4&#45;&gt;G2&#45;1</title>
<path fill="none" stroke="black" d="M106.15,-88.82C101.99,-78.62 96.4,-65.44 90.88,-54 89.33,-50.79 87.64,-47.45 85.92,-44.17"/>
<polygon fill="black" stroke="black" points="88.92,-42.36 81.1,-35.21 82.76,-45.68 88.92,-42.36"/>
<text text-anchor="middle" x="128.42" y="-58.2" font-family="Times,serif" font-size="14.00">take&#45;home</text>
</g>
</g>
</svg>
