<?xml version="1.0" encoding="UTF-8" standalone="no"?>
<!DOCTYPE svg PUBLIC "-//W3C//DTD SVG 1.1//EN"
 "http://www.w3.org/Graphics/SVG/1.1/DTD/svg11.dtd">
<!-- Generated by graphviz version 5.0.0 (20220707.2145)
 -->
<!-- Title: G Pages: 1 -->
<svg width="163pt" height="222pt"
 viewBox="0.00 0.00 162.78 221.60" xmlns="http://www.w3.org/2000/svg" xmlns:xlink="http://www.w3.org/1999/xlink">
<g id="graph0" class="graph" transform="scale(1 1) rotate(0) translate(4 217.6)">
<title>G</title>
<polygon fill="white" stroke="transparent" points="-4,4 -4,-217.6 158.78,-217.6 158.78,4 -4,4"/>
<!-- system -->
<g id="node1" class="node">
<title>system</title>
<ellipse fill="none" stroke="black" cx="66.88" cy="-195.6" rx="37.72" ry="18"/>
<text text-anchor="middle" x="66.88" y="-191.4" font-family="Times,serif" font-size="14.00">system</text>
</g>
<!-- G1&#45;1 -->
<g id="node2" class="node">
<title>G1&#45;1</title>
<ellipse fill="none" stroke="black" cx="30.88" cy="-106.8" rx="30.77" ry="18"/>
<text text-anchor="middle" x="30.88" y="-102.6" font-family="Times,serif" font-size="14.00">G1&#45;1</text>
</g>
<!-- system&#45;&gt;G1&#45;1 -->
<g id="edge1" class="edge">
<title>system&#45;&gt;G1&#45;1</title>
<path fill="none" stroke="black" d="M49.23,-179.48C43.79,-173.82 38.39,-166.97 35.2,-159.6 31.9,-152 30.41,-143.19 29.86,-135.02"/>
<polygon fill="black" stroke="black" points="33.35,-134.7 29.6,-124.79 26.36,-134.88 33.35,-134.7"/>
<text text-anchor="middle" x="61.73" y="-147" font-family="Times,serif" font-size="14.00">x+y&gt;=10</text>
</g>
<!-- G4&#45;1 -->
<g id="node3" class="node">
<title>G4&#45;1</title>
<ellipse fill="none" stroke="black" cx="63.88" cy="-18" rx="30.77" ry="18"/>
<text text-anchor="middle" x="63.88" y="-13.8" font-family="Times,serif" font-size="14.00">G4&#45;1</text>
</g>
<!-- system&#45;&gt;G4&#45;1 -->
<g id="edge2" class="edge">
<title>system&#45;&gt;G4&#45;1</title>
<path fill="none" stroke="black" d="M78.53,-178.28C81.92,-172.64 85.16,-166.09 86.88,-159.6 98.93,-114.24 100.33,-98.96 86.88,-54 85.78,-50.3 84.14,-46.63 82.24,-43.13"/>
<polygon fill="black" stroke="black" points="85.04,-41.02 76.77,-34.39 79.11,-44.73 85.04,-41.02"/>
<text text-anchor="middle" x="125.83" y="-102.6" font-family="Times,serif" font-size="14.00">x+y+z&lt;10</text>
</g>
<!-- G1&#45;1&#45;&gt;G4&#45;1 -->
<g id="edge3" class="edge">
<title>G1&#45;1&#45;&gt;G4&#45;1</title>
<path fill="none" stroke="black" d="M26.78,-88.84C25.09,-78.41 24.44,-64.98 28.98,-54 31.11,-48.85 34.41,-44.05 38.15,-39.77"/>
<polygon fill="black" stroke="black" points="40.65,-42.22 45.19,-32.64 35.67,-37.3 40.65,-42.22"/>
<text text-anchor="middle" x="58.83" y="-58.2" font-family="Times,serif" font-size="14.00">x+y+z&lt;10</text>
</g>
</g>
</svg>
