<?xml version="1.0" encoding="UTF-8" standalone="no"?>
<!DOCTYPE svg PUBLIC "-//W3C//DTD SVG 1.1//EN"
 "http://www.w3.org/Graphics/SVG/1.1/DTD/svg11.dtd">
<!-- Generated by graphviz version 5.0.0 (20220707.2145)
 -->
<!-- Title: G Pages: 1 -->
<svg width="207pt" height="222pt"
 viewBox="0.00 0.00 207.00 221.60" xmlns="http://www.w3.org/2000/svg" xmlns:xlink="http://www.w3.org/1999/xlink">
<g id="graph0" class="graph" transform="scale(1 1) rotate(0) translate(4 217.6)">
<title>G</title>
<polygon fill="white" stroke="transparent" points="-4,4 -4,-217.6 203,-217.6 203,4 -4,4"/>
<!-- X -->
<g id="node1" class="node">
<title>X</title>
<ellipse fill="none" stroke="black" cx="27" cy="-195.6" rx="27" ry="18"/>
<text text-anchor="middle" x="27" y="-191.4" font-family="Times,serif" font-size="14.00">1</text>
</g>
<!-- sup&#45;eq&#45;ten -->
<g id="node6" class="node">
<title>sup&#45;eq&#45;ten</title>
<polygon fill="none" stroke="black" points="176.8,-124.8 95.2,-124.8 95.2,-88.8 176.8,-88.8 176.8,-124.8"/>
<text text-anchor="middle" x="136" y="-102.6" font-family="Times,serif" font-size="14.00">x+y+z&gt;=10</text>
</g>
<!-- X&#45;&gt;sup&#45;eq&#45;ten -->
<g id="edge1" class="edge">
<title>X&#45;&gt;sup&#45;eq&#45;ten</title>
<path fill="none" stroke="black" d="M44.03,-181.04C60.77,-167.71 86.64,-147.11 106.68,-131.15"/>
<polygon fill="black" stroke="black" points="108.95,-133.81 114.6,-124.85 104.59,-128.34 108.95,-133.81"/>
<text text-anchor="middle" x="94.5" y="-147" font-family="Times,serif" font-size="14.00">x</text>
</g>
<!-- inf&#45;ten -->
<g id="node7" class="node">
<title>inf&#45;ten</title>
<polygon fill="none" stroke="black" points="76.9,-124.8 3.1,-124.8 3.1,-88.8 76.9,-88.8 76.9,-124.8"/>
<text text-anchor="middle" x="40" y="-102.6" font-family="Times,serif" font-size="14.00">x+y+z&lt;10</text>
</g>
<!-- X&#45;&gt;inf&#45;ten -->
<g id="edge6" class="edge">
<title>X&#45;&gt;inf&#45;ten</title>
<path fill="none" stroke="black" d="M26,-177.2C25.75,-167.09 26,-154.14 28,-142.8 28.48,-140.11 29.13,-137.34 29.88,-134.6"/>
<polygon fill="black" stroke="black" points="33.25,-135.56 32.93,-124.97 26.57,-133.44 33.25,-135.56"/>
<text text-anchor="middle" x="31.5" y="-147" font-family="Times,serif" font-size="14.00">x</text>
</g>
<!-- Y -->
<g id="node2" class="node">
<title>Y</title>
<ellipse fill="none" stroke="black" cx="172" cy="-195.6" rx="27" ry="18"/>
<text text-anchor="middle" x="172" y="-191.4" font-family="Times,serif" font-size="14.00">2</text>
</g>
<!-- Y&#45;&gt;sup&#45;eq&#45;ten -->
<g id="edge2" class="edge">
<title>Y&#45;&gt;sup&#45;eq&#45;ten</title>
<path fill="none" stroke="black" d="M165.27,-177.77C161.19,-167.62 155.85,-154.44 151,-142.8 149.86,-140.05 148.65,-137.19 147.44,-134.34"/>
<polygon fill="black" stroke="black" points="150.54,-132.68 143.39,-124.86 144.1,-135.43 150.54,-132.68"/>
<text text-anchor="middle" x="160.5" y="-147" font-family="Times,serif" font-size="14.00">y</text>
</g>
<!-- Y&#45;&gt;inf&#45;ten -->
<g id="edge7" class="edge">
<title>Y&#45;&gt;inf&#45;ten</title>
<path fill="none" stroke="black" d="M159.87,-179.43C150.26,-168.18 135.99,-153.07 121,-142.8 114.68,-138.47 100.92,-132.17 86.5,-126.11"/>
<polygon fill="black" stroke="black" points="87.59,-122.78 77.01,-122.19 84.91,-129.24 87.59,-122.78"/>
<text text-anchor="middle" x="143.5" y="-147" font-family="Times,serif" font-size="14.00">y</text>
</g>
<!-- Z -->
<g id="node3" class="node">
<title>Z</title>
<ellipse fill="none" stroke="black" cx="100" cy="-195.6" rx="27" ry="18"/>
<text text-anchor="middle" x="100" y="-191.4" font-family="Times,serif" font-size="14.00">1</text>
</g>
<!-- Z&#45;&gt;sup&#45;eq&#45;ten -->
<g id="edge3" class="edge">
<title>Z&#45;&gt;sup&#45;eq&#45;ten</title>
<path fill="none" stroke="black" d="M105.14,-177.56C108.4,-167.34 112.91,-154.16 117.79,-142.8 119.02,-139.93 120.38,-136.98 121.8,-134.06"/>
<polygon fill="black" stroke="black" points="125,-135.5 126.4,-125 118.75,-132.33 125,-135.5"/>
<text text-anchor="middle" x="120.11" y="-147" font-family="Times,serif" font-size="14.00">z</text>
</g>
<!-- Z&#45;&gt;inf&#45;ten -->
<g id="edge8" class="edge">
<title>Z&#45;&gt;inf&#45;ten</title>
<path fill="none" stroke="black" d="M81.66,-182.35C73.73,-176.29 64.89,-168.39 58.79,-159.6 53.66,-152.23 49.77,-143.3 46.9,-134.95"/>
<polygon fill="black" stroke="black" points="50.18,-133.71 43.88,-125.19 43.49,-135.78 50.18,-133.71"/>
<text text-anchor="middle" x="61.11" y="-147" font-family="Times,serif" font-size="14.00">z</text>
</g>
<!-- C -->
<g id="node4" class="node">
<title>C</title>
<ellipse fill="none" stroke="black" cx="52" cy="-18" rx="27" ry="18"/>
</g>
<!-- S -->
<g id="node5" class="node">
<title>S</title>
<ellipse fill="none" stroke="black" cx="127" cy="-18" rx="27" ry="18"/>
</g>
<!-- sup&#45;eq&#45;ten&#45;&gt;C -->
<g id="edge4" class="edge">
<title>sup&#45;eq&#45;ten&#45;&gt;C</title>
<path fill="none" stroke="black" d="M119.4,-88.65C106.13,-74.94 87.44,-55.62 73.1,-40.8"/>
<polygon fill="black" stroke="black" points="75.52,-38.27 66.05,-33.52 70.49,-43.14 75.52,-38.27"/>
<text text-anchor="middle" x="104.11" y="-58.2" font-family="Times,serif" font-size="14.00">c</text>
</g>
<!-- sup&#45;eq&#45;ten&#45;&gt;S -->
<g id="edge5" class="edge">
<title>sup&#45;eq&#45;ten&#45;&gt;S</title>
<path fill="none" stroke="black" d="M134.22,-88.65C132.96,-76.52 131.25,-60.02 129.81,-46.12"/>
<polygon fill="black" stroke="black" points="133.29,-45.7 128.77,-36.11 126.32,-46.42 133.29,-45.7"/>
<text text-anchor="middle" x="134.33" y="-58.2" font-family="Times,serif" font-size="14.00">r</text>
</g>
<!-- inf&#45;ten&#45;&gt;C -->
<g id="edge9" class="edge">
<title>inf&#45;ten&#45;&gt;C</title>
<path fill="none" stroke="black" d="M42.37,-88.65C44.05,-76.52 46.33,-60.02 48.25,-46.12"/>
<polygon fill="black" stroke="black" points="51.73,-46.5 49.63,-36.11 44.8,-45.54 51.73,-46.5"/>
<text text-anchor="middle" x="51.11" y="-58.2" font-family="Times,serif" font-size="14.00">c</text>
</g>
<!-- inf&#45;ten&#45;&gt;S -->
<g id="edge10" class="edge">
<title>inf&#45;ten&#45;&gt;S</title>
<path fill="none" stroke="black" d="M51.75,-88.55C59.35,-78 69.79,-64.56 80.55,-54 86.53,-48.13 93.51,-42.39 100.22,-37.31"/>
<polygon fill="black" stroke="black" points="102.47,-40 108.47,-31.27 98.34,-34.35 102.47,-40"/>
<text text-anchor="middle" x="82.72" y="-58.2" font-family="Times,serif" font-size="14.00">s</text>
</g>
</g>
</svg>
