<?xml version="1.0" encoding="UTF-8" standalone="no"?>
<!DOCTYPE svg PUBLIC "-//W3C//DTD SVG 1.1//EN"
 "http://www.w3.org/Graphics/SVG/1.1/DTD/svg11.dtd">
<!-- Generated by graphviz version 5.0.0 (20220707.2145)
 -->
<!-- Title: G Pages: 1 -->
<svg width="415pt" height="577pt"
 viewBox="0.00 0.00 414.90 576.80" xmlns="http://www.w3.org/2000/svg" xmlns:xlink="http://www.w3.org/1999/xlink">
<g id="graph0" class="graph" transform="scale(1 1) rotate(0) translate(4 572.8)">
<title>G</title>
<polygon fill="white" stroke="transparent" points="-4,4 -4,-572.8 410.9,-572.8 410.9,4 -4,4"/>
<!-- U1 -->
<g id="node1" class="node">
<title>U1</title>
<ellipse fill="none" stroke="black" cx="299" cy="-550.8" rx="27" ry="18"/>
</g>
<!-- half&#45;sup&#45;eq&#45;ten -->
<g id="node13" class="node">
<title>half&#45;sup&#45;eq&#45;ten</title>
<polygon fill="none" stroke="black" points="327.69,-480 260.31,-480 260.31,-444 327.69,-444 327.69,-480"/>
<text text-anchor="middle" x="294" y="-457.8" font-family="Times,serif" font-size="14.00">x+y&gt;=10</text>
</g>
<!-- U1&#45;&gt;half&#45;sup&#45;eq&#45;ten -->
<g id="edge1" class="edge">
<title>U1&#45;&gt;half&#45;sup&#45;eq&#45;ten</title>
<path fill="none" stroke="black" d="M295.49,-532.78C294.47,-527.09 293.5,-520.7 293,-514.8 292.33,-506.91 292.24,-498.33 292.41,-490.46"/>
<polygon fill="black" stroke="black" points="295.91,-490.41 292.77,-480.3 288.91,-490.17 295.91,-490.41"/>
<text text-anchor="middle" x="296.5" y="-502.2" font-family="Times,serif" font-size="14.00">x</text>
</g>
<!-- half&#45;inf&#45;ten -->
<g id="node14" class="node">
<title>half&#45;inf&#45;ten</title>
<polygon fill="none" stroke="black" points="406.79,-480 347.21,-480 347.21,-444 406.79,-444 406.79,-480"/>
<text text-anchor="middle" x="377" y="-457.8" font-family="Times,serif" font-size="14.00">x+y&lt;10</text>
</g>
<!-- U1&#45;&gt;half&#45;inf&#45;ten -->
<g id="edge5" class="edge">
<title>U1&#45;&gt;half&#45;inf&#45;ten</title>
<path fill="none" stroke="black" d="M304.05,-533.04C307.94,-522.16 314.16,-508.18 323,-498 327.53,-492.78 333.02,-488.05 338.74,-483.86"/>
<polygon fill="black" stroke="black" points="340.88,-486.63 347.2,-478.13 336.96,-480.84 340.88,-486.63"/>
<text text-anchor="middle" x="326.5" y="-502.2" font-family="Times,serif" font-size="14.00">x</text>
</g>
<!-- U2 -->
<g id="node2" class="node">
<title>U2</title>
<ellipse fill="none" stroke="black" cx="375" cy="-550.8" rx="27" ry="18"/>
</g>
<!-- U2&#45;&gt;half&#45;sup&#45;eq&#45;ten -->
<g id="edge2" class="edge">
<title>U2&#45;&gt;half&#45;sup&#45;eq&#45;ten</title>
<path fill="none" stroke="black" d="M361.56,-534.72C352.23,-524.31 339.47,-510.22 328,-498 324.85,-494.64 321.5,-491.14 318.19,-487.69"/>
<polygon fill="black" stroke="black" points="320.54,-485.08 311.07,-480.33 315.51,-489.95 320.54,-485.08"/>
<text text-anchor="middle" x="346.5" y="-502.2" font-family="Times,serif" font-size="14.00">y</text>
</g>
<!-- U2&#45;&gt;half&#45;inf&#45;ten -->
<g id="edge6" class="edge">
<title>U2&#45;&gt;half&#45;inf&#45;ten</title>
<path fill="none" stroke="black" d="M375.4,-532.65C375.67,-520.52 376.05,-504.02 376.38,-490.12"/>
<polygon fill="black" stroke="black" points="379.87,-490.19 376.61,-480.11 372.88,-490.03 379.87,-490.19"/>
<text text-anchor="middle" x="379.5" y="-502.2" font-family="Times,serif" font-size="14.00">y</text>
</g>
<!-- T1 -->
<g id="node3" class="node">
<title>T1</title>
<ellipse fill="none" stroke="black" cx="150" cy="-373.2" rx="27" ry="18"/>
</g>
<!-- full&#45;sup&#45;eq&#45;ten1 -->
<g id="node15" class="node">
<title>full&#45;sup&#45;eq&#45;ten1</title>
<polygon fill="none" stroke="black" points="299.8,-302.4 218.2,-302.4 218.2,-266.4 299.8,-266.4 299.8,-302.4"/>
<text text-anchor="middle" x="259" y="-280.2" font-family="Times,serif" font-size="14.00">x+y+z&gt;=10</text>
</g>
<!-- T1&#45;&gt;full&#45;sup&#45;eq&#45;ten1 -->
<g id="edge9" class="edge">
<title>T1&#45;&gt;full&#45;sup&#45;eq&#45;ten1</title>
<path fill="none" stroke="black" d="M167.03,-358.64C183.77,-345.31 209.64,-324.71 229.68,-308.75"/>
<polygon fill="black" stroke="black" points="231.95,-311.41 237.6,-302.45 227.59,-305.94 231.95,-311.41"/>
<text text-anchor="middle" x="218.5" y="-324.6" font-family="Times,serif" font-size="14.00">x</text>
</g>
<!-- full&#45;inf&#45;ten1 -->
<g id="node16" class="node">
<title>full&#45;inf&#45;ten1</title>
<polygon fill="none" stroke="black" points="199.9,-302.4 126.1,-302.4 126.1,-266.4 199.9,-266.4 199.9,-302.4"/>
<text text-anchor="middle" x="163" y="-280.2" font-family="Times,serif" font-size="14.00">x+y+z&lt;10</text>
</g>
<!-- T1&#45;&gt;full&#45;inf&#45;ten1 -->
<g id="edge14" class="edge">
<title>T1&#45;&gt;full&#45;inf&#45;ten1</title>
<path fill="none" stroke="black" d="M149,-354.8C148.75,-344.69 149,-331.74 151,-320.4 151.48,-317.71 152.13,-314.94 152.88,-312.2"/>
<polygon fill="black" stroke="black" points="156.25,-313.16 155.93,-302.57 149.57,-311.04 156.25,-313.16"/>
<text text-anchor="middle" x="154.5" y="-324.6" font-family="Times,serif" font-size="14.00">x</text>
</g>
<!-- T2 -->
<g id="node4" class="node">
<title>T2</title>
<ellipse fill="none" stroke="black" cx="223" cy="-373.2" rx="27" ry="18"/>
</g>
<!-- T2&#45;&gt;full&#45;sup&#45;eq&#45;ten1 -->
<g id="edge10" class="edge">
<title>T2&#45;&gt;full&#45;sup&#45;eq&#45;ten1</title>
<path fill="none" stroke="black" d="M228.25,-355.18C231.56,-344.96 236.13,-331.78 241,-320.4 242.23,-317.54 243.58,-314.59 244.99,-311.67"/>
<polygon fill="black" stroke="black" points="248.18,-313.12 249.54,-302.62 241.92,-309.98 248.18,-313.12"/>
<text text-anchor="middle" x="244.5" y="-324.6" font-family="Times,serif" font-size="14.00">y</text>
</g>
<!-- T2&#45;&gt;full&#45;inf&#45;ten1 -->
<g id="edge15" class="edge">
<title>T2&#45;&gt;full&#45;inf&#45;ten1</title>
<path fill="none" stroke="black" d="M204.25,-360.05C196.16,-354.01 187.16,-346.1 181,-337.2 175.92,-329.85 172.14,-320.93 169.4,-312.58"/>
<polygon fill="black" stroke="black" points="172.71,-311.43 166.55,-302.81 165.99,-313.39 172.71,-311.43"/>
<text text-anchor="middle" x="184.5" y="-324.6" font-family="Times,serif" font-size="14.00">y</text>
</g>
<!-- H1 -->
<g id="node5" class="node">
<title>H1</title>
<ellipse fill="none" stroke="black" cx="27" cy="-195.6" rx="27" ry="18"/>
<text text-anchor="middle" x="27" y="-191.4" font-family="Times,serif" font-size="14.00">1</text>
</g>
<!-- full&#45;sup&#45;eq&#45;ten2 -->
<g id="node17" class="node">
<title>full&#45;sup&#45;eq&#45;ten2</title>
<polygon fill="none" stroke="black" points="176.8,-124.8 95.2,-124.8 95.2,-88.8 176.8,-88.8 176.8,-124.8"/>
<text text-anchor="middle" x="136" y="-102.6" font-family="Times,serif" font-size="14.00">x+y+z&gt;=10</text>
</g>
<!-- H1&#45;&gt;full&#45;sup&#45;eq&#45;ten2 -->
<g id="edge19" class="edge">
<title>H1&#45;&gt;full&#45;sup&#45;eq&#45;ten2</title>
<path fill="none" stroke="black" d="M44.03,-181.04C60.77,-167.71 86.64,-147.11 106.68,-131.15"/>
<polygon fill="black" stroke="black" points="108.95,-133.81 114.6,-124.85 104.59,-128.34 108.95,-133.81"/>
<text text-anchor="middle" x="95.5" y="-147" font-family="Times,serif" font-size="14.00">x</text>
</g>
<!-- full&#45;inf&#45;ten2 -->
<g id="node18" class="node">
<title>full&#45;inf&#45;ten2</title>
<polygon fill="none" stroke="black" points="76.9,-124.8 3.1,-124.8 3.1,-88.8 76.9,-88.8 76.9,-124.8"/>
<text text-anchor="middle" x="40" y="-102.6" font-family="Times,serif" font-size="14.00">x+y+z&lt;10</text>
</g>
<!-- H1&#45;&gt;full&#45;inf&#45;ten2 -->
<g id="edge24" class="edge">
<title>H1&#45;&gt;full&#45;inf&#45;ten2</title>
<path fill="none" stroke="black" d="M26,-177.2C25.75,-167.09 26,-154.14 28,-142.8 28.48,-140.11 29.13,-137.34 29.88,-134.6"/>
<polygon fill="black" stroke="black" points="33.25,-135.56 32.93,-124.97 26.57,-133.44 33.25,-135.56"/>
<text text-anchor="middle" x="31.5" y="-147" font-family="Times,serif" font-size="14.00">x</text>
</g>
<!-- H2 -->
<g id="node6" class="node">
<title>H2</title>
<ellipse fill="none" stroke="black" cx="100" cy="-195.6" rx="27" ry="18"/>
<text text-anchor="middle" x="100" y="-191.4" font-family="Times,serif" font-size="14.00">7</text>
</g>
<!-- H2&#45;&gt;full&#45;sup&#45;eq&#45;ten2 -->
<g id="edge20" class="edge">
<title>H2&#45;&gt;full&#45;sup&#45;eq&#45;ten2</title>
<path fill="none" stroke="black" d="M105.25,-177.58C108.56,-167.36 113.13,-154.18 118,-142.8 119.23,-139.94 120.58,-136.99 121.99,-134.07"/>
<polygon fill="black" stroke="black" points="125.18,-135.52 126.54,-125.02 118.92,-132.38 125.18,-135.52"/>
<text text-anchor="middle" x="121.5" y="-147" font-family="Times,serif" font-size="14.00">y</text>
</g>
<!-- H2&#45;&gt;full&#45;inf&#45;ten2 -->
<g id="edge25" class="edge">
<title>H2&#45;&gt;full&#45;inf&#45;ten2</title>
<path fill="none" stroke="black" d="M81.25,-182.45C73.16,-176.41 64.16,-168.5 58,-159.6 52.92,-152.25 49.14,-143.33 46.4,-134.98"/>
<polygon fill="black" stroke="black" points="49.71,-133.83 43.55,-125.21 42.99,-135.79 49.71,-133.83"/>
<text text-anchor="middle" x="61.5" y="-147" font-family="Times,serif" font-size="14.00">y</text>
</g>
<!-- C1 -->
<g id="node7" class="node">
<title>C1</title>
<ellipse fill="none" stroke="black" cx="296" cy="-373.2" rx="27" ry="18"/>
</g>
<!-- C1&#45;&gt;full&#45;sup&#45;eq&#45;ten1 -->
<g id="edge11" class="edge">
<title>C1&#45;&gt;full&#45;sup&#45;eq&#45;ten1</title>
<path fill="none" stroke="black" d="M289.38,-355.33C285.33,-345.16 279.99,-331.98 275,-320.4 273.77,-317.55 272.46,-314.58 271.14,-311.62"/>
<polygon fill="black" stroke="black" points="274.28,-310.08 266.96,-302.42 267.91,-312.98 274.28,-310.08"/>
<text text-anchor="middle" x="285.11" y="-324.6" font-family="Times,serif" font-size="14.00">z</text>
</g>
<!-- C1&#45;&gt;full&#45;inf&#45;ten1 -->
<g id="edge16" class="edge">
<title>C1&#45;&gt;full&#45;inf&#45;ten1</title>
<path fill="none" stroke="black" d="M284.19,-356.98C274.81,-345.7 260.84,-330.58 246,-320.4 239.38,-315.86 224.71,-309.33 209.52,-303.14"/>
<polygon fill="black" stroke="black" points="210.65,-299.82 200.07,-299.35 208.05,-306.32 210.65,-299.82"/>
<text text-anchor="middle" x="269.11" y="-324.6" font-family="Times,serif" font-size="14.00">z</text>
</g>
<!-- S1 -->
<g id="node8" class="node">
<title>S1</title>
<ellipse fill="none" stroke="black" cx="375" cy="-373.2" rx="27" ry="18"/>
<text text-anchor="middle" x="375" y="-369" font-family="Times,serif" font-size="14.00">0</text>
</g>
<!-- C2 -->
<g id="node9" class="node">
<title>C2</title>
<ellipse fill="none" stroke="black" cx="173" cy="-195.6" rx="27" ry="18"/>
<text text-anchor="middle" x="173" y="-191.4" font-family="Times,serif" font-size="14.00">1</text>
</g>
<!-- C2&#45;&gt;full&#45;sup&#45;eq&#45;ten2 -->
<g id="edge21" class="edge">
<title>C2&#45;&gt;full&#45;sup&#45;eq&#45;ten2</title>
<path fill="none" stroke="black" d="M166.38,-177.73C162.33,-167.56 156.99,-154.38 152,-142.8 150.77,-139.95 149.46,-136.98 148.14,-134.02"/>
<polygon fill="black" stroke="black" points="151.28,-132.48 143.96,-124.82 144.91,-135.38 151.28,-132.48"/>
<text text-anchor="middle" x="162.11" y="-147" font-family="Times,serif" font-size="14.00">z</text>
</g>
<!-- C2&#45;&gt;full&#45;inf&#45;ten2 -->
<g id="edge26" class="edge">
<title>C2&#45;&gt;full&#45;inf&#45;ten2</title>
<path fill="none" stroke="black" d="M161.19,-179.38C151.81,-168.1 137.84,-152.98 123,-142.8 116.38,-138.26 101.71,-131.73 86.52,-125.54"/>
<polygon fill="black" stroke="black" points="87.65,-122.22 77.07,-121.75 85.05,-128.72 87.65,-122.22"/>
<text text-anchor="middle" x="146.11" y="-147" font-family="Times,serif" font-size="14.00">z</text>
</g>
<!-- S2 -->
<g id="node10" class="node">
<title>S2</title>
<ellipse fill="none" stroke="black" cx="254" cy="-195.6" rx="27" ry="18"/>
<text text-anchor="middle" x="254" y="-191.4" font-family="Times,serif" font-size="14.00">0</text>
</g>
<!-- C3 -->
<g id="node11" class="node">
<title>C3</title>
<ellipse fill="none" stroke="black" cx="52" cy="-18" rx="27" ry="18"/>
</g>
<!-- S3 -->
<g id="node12" class="node">
<title>S3</title>
<ellipse fill="none" stroke="black" cx="127" cy="-18" rx="27" ry="18"/>
</g>
<!-- half&#45;sup&#45;eq&#45;ten&#45;&gt;C1 -->
<g id="edge3" class="edge">
<title>half&#45;sup&#45;eq&#45;ten&#45;&gt;C1</title>
<path fill="none" stroke="black" d="M294.4,-443.85C294.67,-431.72 295.05,-415.22 295.38,-401.32"/>
<polygon fill="black" stroke="black" points="298.87,-401.39 295.61,-391.31 291.88,-401.23 298.87,-401.39"/>
<text text-anchor="middle" x="299.11" y="-413.4" font-family="Times,serif" font-size="14.00">c</text>
</g>
<!-- half&#45;sup&#45;eq&#45;ten&#45;&gt;S1 -->
<g id="edge4" class="edge">
<title>half&#45;sup&#45;eq&#45;ten&#45;&gt;S1</title>
<path fill="none" stroke="black" d="M302.42,-443.98C308.22,-433.28 316.63,-419.57 326.34,-409.2 332.24,-402.9 339.43,-397 346.45,-391.92"/>
<polygon fill="black" stroke="black" points="348.89,-394.49 355.14,-385.93 344.92,-388.72 348.89,-394.49"/>
<text text-anchor="middle" x="329.33" y="-413.4" font-family="Times,serif" font-size="14.00">r</text>
</g>
<!-- half&#45;inf&#45;ten&#45;&gt;C1 -->
<g id="edge7" class="edge">
<title>half&#45;inf&#45;ten&#45;&gt;C1</title>
<path fill="none" stroke="black" d="M361,-443.85C348.39,-430.34 330.72,-411.4 316.98,-396.68"/>
<polygon fill="black" stroke="black" points="319.19,-393.92 309.81,-389 314.08,-398.7 319.19,-393.92"/>
<text text-anchor="middle" x="347.11" y="-413.4" font-family="Times,serif" font-size="14.00">c</text>
</g>
<!-- half&#45;inf&#45;ten&#45;&gt;S1 -->
<g id="edge8" class="edge">
<title>half&#45;inf&#45;ten&#45;&gt;S1</title>
<path fill="none" stroke="black" d="M376.6,-443.85C376.33,-431.72 375.95,-415.22 375.62,-401.32"/>
<polygon fill="black" stroke="black" points="379.12,-401.23 375.39,-391.31 372.13,-401.39 379.12,-401.23"/>
<text text-anchor="middle" x="378.72" y="-413.4" font-family="Times,serif" font-size="14.00">s</text>
</g>
<!-- full&#45;sup&#45;eq&#45;ten1&#45;&gt;C2 -->
<g id="edge12" class="edge">
<title>full&#45;sup&#45;eq&#45;ten1&#45;&gt;C2</title>
<path fill="none" stroke="black" d="M242.01,-266.25C228.42,-252.54 209.28,-233.22 194.6,-218.4"/>
<polygon fill="black" stroke="black" points="196.91,-215.76 187.39,-211.12 191.94,-220.69 196.91,-215.76"/>
<text text-anchor="middle" x="227.11" y="-235.8" font-family="Times,serif" font-size="14.00">c</text>
</g>
<!-- full&#45;sup&#45;eq&#45;ten1&#45;&gt;S2 -->
<g id="edge13" class="edge">
<title>full&#45;sup&#45;eq&#45;ten1&#45;&gt;S2</title>
<path fill="none" stroke="black" d="M258.01,-266.25C257.31,-254.12 256.36,-237.62 255.56,-223.72"/>
<polygon fill="black" stroke="black" points="259.06,-223.5 254.99,-213.71 252.07,-223.9 259.06,-223.5"/>
<text text-anchor="middle" x="259.33" y="-235.8" font-family="Times,serif" font-size="14.00">r</text>
</g>
<!-- full&#45;inf&#45;ten1&#45;&gt;C2 -->
<g id="edge17" class="edge">
<title>full&#45;inf&#45;ten1&#45;&gt;C2</title>
<path fill="none" stroke="black" d="M164.98,-266.25C166.37,-254.12 168.27,-237.62 169.88,-223.72"/>
<polygon fill="black" stroke="black" points="173.36,-224.05 171.03,-213.71 166.41,-223.25 173.36,-224.05"/>
<text text-anchor="middle" x="172.11" y="-235.8" font-family="Times,serif" font-size="14.00">c</text>
</g>
<!-- full&#45;inf&#45;ten1&#45;&gt;S2 -->
<g id="edge18" class="edge">
<title>full&#45;inf&#45;ten1&#45;&gt;S2</title>
<path fill="none" stroke="black" d="M174.61,-266C182.15,-255.4 192.59,-241.95 203.55,-231.6 210.24,-225.29 218.14,-219.26 225.69,-214.03"/>
<polygon fill="black" stroke="black" points="227.91,-216.76 234.29,-208.3 224.03,-210.94 227.91,-216.76"/>
<text text-anchor="middle" x="206.72" y="-235.8" font-family="Times,serif" font-size="14.00">s</text>
</g>
<!-- full&#45;sup&#45;eq&#45;ten2&#45;&gt;C3 -->
<g id="edge22" class="edge">
<title>full&#45;sup&#45;eq&#45;ten2&#45;&gt;C3</title>
<path fill="none" stroke="black" d="M119.4,-88.65C106.13,-74.94 87.44,-55.62 73.1,-40.8"/>
<polygon fill="black" stroke="black" points="75.52,-38.27 66.05,-33.52 70.49,-43.14 75.52,-38.27"/>
<text text-anchor="middle" x="105.11" y="-58.2" font-family="Times,serif" font-size="14.00">c</text>
</g>
<!-- full&#45;sup&#45;eq&#45;ten2&#45;&gt;S3 -->
<g id="edge23" class="edge">
<title>full&#45;sup&#45;eq&#45;ten2&#45;&gt;S3</title>
<path fill="none" stroke="black" d="M134.22,-88.65C132.96,-76.52 131.25,-60.02 129.81,-46.12"/>
<polygon fill="black" stroke="black" points="133.29,-45.7 128.77,-36.11 126.32,-46.42 133.29,-45.7"/>
<text text-anchor="middle" x="135.33" y="-58.2" font-family="Times,serif" font-size="14.00">r</text>
</g>
<!-- full&#45;inf&#45;ten2&#45;&gt;C3 -->
<g id="edge27" class="edge">
<title>full&#45;inf&#45;ten2&#45;&gt;C3</title>
<path fill="none" stroke="black" d="M42.37,-88.65C44.05,-76.52 46.33,-60.02 48.25,-46.12"/>
<polygon fill="black" stroke="black" points="51.73,-46.5 49.63,-36.11 44.8,-45.54 51.73,-46.5"/>
<text text-anchor="middle" x="51.11" y="-58.2" font-family="Times,serif" font-size="14.00">c</text>
</g>
<!-- full&#45;inf&#45;ten2&#45;&gt;S3 -->
<g id="edge28" class="edge">
<title>full&#45;inf&#45;ten2&#45;&gt;S3</title>
<path fill="none" stroke="black" d="M51.75,-88.55C59.35,-78 69.79,-64.56 80.55,-54 86.53,-48.13 93.51,-42.39 100.22,-37.31"/>
<polygon fill="black" stroke="black" points="102.47,-40 108.47,-31.27 98.34,-34.35 102.47,-40"/>
<text text-anchor="middle" x="83.72" y="-58.2" font-family="Times,serif" font-size="14.00">s</text>
</g>
</g>
</svg>
