<?xml version="1.0" encoding="UTF-8" standalone="no"?>
<!DOCTYPE svg PUBLIC "-//W3C//DTD SVG 1.1//EN"
 "http://www.w3.org/Graphics/SVG/1.1/DTD/svg11.dtd">
<!-- Generated by graphviz version 5.0.0 (20220707.2145)
 -->
<!-- Title: G Pages: 1 -->
<svg width="261pt" height="310pt"
 viewBox="0.00 0.00 260.78 310.40" xmlns="http://www.w3.org/2000/svg" xmlns:xlink="http://www.w3.org/1999/xlink">
<g id="graph0" class="graph" transform="scale(1 1) rotate(0) translate(4 306.4)">
<title>G</title>
<polygon fill="white" stroke="transparent" points="-4,4 -4,-306.4 256.78,-306.4 256.78,4 -4,4"/>
<!-- system -->
<g id="node1" class="node">
<title>system</title>
<ellipse fill="none" stroke="black" cx="100.88" cy="-284.4" rx="37.72" ry="18"/>
<text text-anchor="middle" x="100.88" y="-280.2" font-family="Times,serif" font-size="14.00">system</text>
</g>
<!-- G1&#45;1 -->
<g id="node2" class="node">
<title>G1&#45;1</title>
<ellipse fill="none" stroke="black" cx="30.88" cy="-195.6" rx="30.77" ry="18"/>
<text text-anchor="middle" x="30.88" y="-191.4" font-family="Times,serif" font-size="14.00">G1&#45;1</text>
</g>
<!-- system&#45;&gt;G1&#45;1 -->
<g id="edge1" class="edge">
<title>system&#45;&gt;G1&#45;1</title>
<path fill="none" stroke="black" d="M69.47,-274.11C56.72,-268.7 43.15,-260.49 35.2,-248.4 30.52,-241.3 28.7,-232.41 28.27,-224.01"/>
<polygon fill="black" stroke="black" points="31.77,-223.83 28.36,-213.8 24.77,-223.77 31.77,-223.83"/>
<text text-anchor="middle" x="61.73" y="-235.8" font-family="Times,serif" font-size="14.00">x+y&gt;=10</text>
</g>
<!-- G3&#45;1 -->
<g id="node3" class="node">
<title>G3&#45;1</title>
<ellipse fill="none" stroke="black" cx="100.88" cy="-106.8" rx="30.77" ry="18"/>
<text text-anchor="middle" x="100.88" y="-102.6" font-family="Times,serif" font-size="14.00">G3&#45;1</text>
</g>
<!-- system&#45;&gt;G3&#45;1 -->
<g id="edge2" class="edge">
<title>system&#45;&gt;G3&#45;1</title>
<path fill="none" stroke="black" d="M100.88,-266.24C100.88,-235.82 100.88,-172.18 100.88,-135.48"/>
<polygon fill="black" stroke="black" points="104.38,-135.03 100.88,-125.03 97.38,-135.03 104.38,-135.03"/>
<text text-anchor="middle" x="133.78" y="-191.4" font-family="Times,serif" font-size="14.00">x+y+z&gt;=10</text>
</g>
<!-- G6&#45;1 -->
<g id="node4" class="node">
<title>G6&#45;1</title>
<ellipse fill="none" stroke="black" cx="147.88" cy="-18" rx="30.77" ry="18"/>
<text text-anchor="middle" x="147.88" y="-13.8" font-family="Times,serif" font-size="14.00">G6&#45;1</text>
</g>
<!-- system&#45;&gt;G6&#45;1 -->
<g id="edge3" class="edge">
<title>system&#45;&gt;G6&#45;1</title>
<path fill="none" stroke="black" d="M121.78,-269.2C138.29,-256.69 160.26,-236.86 170.88,-213.6 200.41,-148.95 207.11,-120.06 180.88,-54 178.93,-49.08 175.92,-44.45 172.5,-40.27"/>
<polygon fill="black" stroke="black" points="174.95,-37.77 165.58,-32.83 169.82,-42.53 174.95,-37.77"/>
<text text-anchor="middle" x="223.83" y="-147" font-family="Times,serif" font-size="14.00">x+y+z&lt;10</text>
</g>
<!-- G1&#45;1&#45;&gt;G3&#45;1 -->
<g id="edge4" class="edge">
<title>G1&#45;1&#45;&gt;G3&#45;1</title>
<path fill="none" stroke="black" d="M25.64,-177.49C23.41,-166.74 22.59,-153.02 28.98,-142.8 36.55,-130.7 49.63,-122.67 62.58,-117.4"/>
<polygon fill="black" stroke="black" points="64.14,-120.56 72.37,-113.88 61.77,-113.97 64.14,-120.56"/>
<text text-anchor="middle" x="58.83" y="-147" font-family="Times,serif" font-size="14.00">x+y+z&lt;10</text>
</g>
<!-- G3&#45;1&#45;&gt;G6&#45;1 -->
<g id="edge5" class="edge">
<title>G3&#45;1&#45;&gt;G6&#45;1</title>
<path fill="none" stroke="black" d="M106.97,-89.04C110.99,-78.68 116.67,-65.26 122.98,-54 125.07,-50.27 127.48,-46.45 129.95,-42.77"/>
<polygon fill="black" stroke="black" points="132.84,-44.75 135.73,-34.56 127.11,-40.72 132.84,-44.75"/>
<text text-anchor="middle" x="151.83" y="-58.2" font-family="Times,serif" font-size="14.00">x+y+z&lt;10</text>
</g>
</g>
</svg>
