<?xml version="1.0" encoding="UTF-8" standalone="no"?>
<!DOCTYPE svg PUBLIC "-//W3C//DTD SVG 1.1//EN"
 "http://www.w3.org/Graphics/SVG/1.1/DTD/svg11.dtd">
<!-- Generated by graphviz version 5.0.0 (20220707.2145)
 -->
<!-- Title: G Pages: 1 -->
<svg width="155pt" height="222pt"
 viewBox="0.00 0.00 154.74 221.60" xmlns="http://www.w3.org/2000/svg" xmlns:xlink="http://www.w3.org/1999/xlink">
<g id="graph0" class="graph" transform="scale(1 1) rotate(0) translate(4 217.6)">
<title>G</title>
<polygon fill="white" stroke="transparent" points="-4,4 -4,-217.6 150.74,-217.6 150.74,4 -4,4"/>
<!-- X -->
<g id="node1" class="node">
<title>X</title>
<ellipse fill="none" stroke="black" cx="38.84" cy="-195.6" rx="27" ry="18"/>
</g>
<!-- sup&#45;eq&#45;ten -->
<g id="node5" class="node">
<title>sup&#45;eq&#45;ten</title>
<polygon fill="none" stroke="black" points="67.53,-124.8 0.16,-124.8 0.16,-88.8 67.53,-88.8 67.53,-124.8"/>
<text text-anchor="middle" x="33.84" y="-102.6" font-family="Times,serif" font-size="14.00">x+y&gt;=10</text>
</g>
<!-- X&#45;&gt;sup&#45;eq&#45;ten -->
<g id="edge1" class="edge">
<title>X&#45;&gt;sup&#45;eq&#45;ten</title>
<path fill="none" stroke="black" d="M35.33,-177.58C34.31,-171.89 33.35,-165.5 32.84,-159.6 32.17,-151.71 32.08,-143.13 32.25,-135.26"/>
<polygon fill="black" stroke="black" points="35.75,-135.21 32.61,-125.1 28.76,-134.97 35.75,-135.21"/>
<text text-anchor="middle" x="36.34" y="-147" font-family="Times,serif" font-size="14.00">x</text>
</g>
<!-- inf&#45;ten -->
<g id="node6" class="node">
<title>inf&#45;ten</title>
<polygon fill="none" stroke="black" points="146.63,-124.8 87.05,-124.8 87.05,-88.8 146.63,-88.8 146.63,-124.8"/>
<text text-anchor="middle" x="116.84" y="-102.6" font-family="Times,serif" font-size="14.00">x+y&lt;10</text>
</g>
<!-- X&#45;&gt;inf&#45;ten -->
<g id="edge5" class="edge">
<title>X&#45;&gt;inf&#45;ten</title>
<path fill="none" stroke="black" d="M43.9,-177.84C47.79,-166.96 54.01,-152.98 62.84,-142.8 67.37,-137.58 72.86,-132.85 78.58,-128.66"/>
<polygon fill="black" stroke="black" points="80.73,-131.43 87.05,-122.93 76.8,-125.64 80.73,-131.43"/>
<text text-anchor="middle" x="66.34" y="-147" font-family="Times,serif" font-size="14.00">x</text>
</g>
<!-- Y -->
<g id="node2" class="node">
<title>Y</title>
<ellipse fill="none" stroke="black" cx="114.84" cy="-195.6" rx="27" ry="18"/>
</g>
<!-- Y&#45;&gt;sup&#45;eq&#45;ten -->
<g id="edge2" class="edge">
<title>Y&#45;&gt;sup&#45;eq&#45;ten</title>
<path fill="none" stroke="black" d="M101.4,-179.52C92.07,-169.11 79.31,-155.02 67.84,-142.8 64.69,-139.44 61.35,-135.94 58.03,-132.49"/>
<polygon fill="black" stroke="black" points="60.38,-129.88 50.91,-125.13 55.35,-134.75 60.38,-129.88"/>
<text text-anchor="middle" x="86.34" y="-147" font-family="Times,serif" font-size="14.00">y</text>
</g>
<!-- Y&#45;&gt;inf&#45;ten -->
<g id="edge6" class="edge">
<title>Y&#45;&gt;inf&#45;ten</title>
<path fill="none" stroke="black" d="M115.24,-177.45C115.52,-165.32 115.9,-148.82 116.22,-134.92"/>
<polygon fill="black" stroke="black" points="119.72,-134.99 116.45,-124.91 112.72,-134.83 119.72,-134.99"/>
<text text-anchor="middle" x="119.34" y="-147" font-family="Times,serif" font-size="14.00">y</text>
</g>
<!-- C -->
<g id="node3" class="node">
<title>C</title>
<ellipse fill="none" stroke="black" cx="38.84" cy="-18" rx="27" ry="18"/>
<text text-anchor="middle" x="38.84" y="-13.8" font-family="Times,serif" font-size="14.00">1</text>
</g>
<!-- S -->
<g id="node4" class="node">
<title>S</title>
<ellipse fill="none" stroke="black" cx="113.84" cy="-18" rx="27" ry="18"/>
<text text-anchor="middle" x="113.84" y="-13.8" font-family="Times,serif" font-size="14.00">2</text>
</g>
<!-- sup&#45;eq&#45;ten&#45;&gt;C -->
<g id="edge3" class="edge">
<title>sup&#45;eq&#45;ten&#45;&gt;C</title>
<path fill="none" stroke="black" d="M34.19,-88.52C34.46,-78.45 34.9,-65.5 35.63,-54 35.79,-51.44 35.99,-48.78 36.2,-46.12"/>
<polygon fill="black" stroke="black" points="39.69,-46.34 37.08,-36.07 32.72,-45.73 39.69,-46.34"/>
<text text-anchor="middle" x="38.95" y="-58.2" font-family="Times,serif" font-size="14.00">c</text>
</g>
<!-- sup&#45;eq&#45;ten&#45;&gt;S -->
<g id="edge4" class="edge">
<title>sup&#45;eq&#45;ten&#45;&gt;S</title>
<path fill="none" stroke="black" d="M42.56,-88.34C48.37,-77.71 56.67,-64.26 66.18,-54 71.97,-47.75 79.02,-41.88 85.89,-36.79"/>
<polygon fill="black" stroke="black" points="88.24,-39.42 94.41,-30.8 84.21,-33.7 88.24,-39.42"/>
<text text-anchor="middle" x="69.17" y="-58.2" font-family="Times,serif" font-size="14.00">r</text>
</g>
<!-- inf&#45;ten&#45;&gt;C -->
<g id="edge7" class="edge">
<title>inf&#45;ten&#45;&gt;C</title>
<path fill="none" stroke="black" d="M101.43,-88.65C89.3,-75.14 72.28,-56.2 59.05,-41.48"/>
<polygon fill="black" stroke="black" points="61.43,-38.9 52.14,-33.8 56.22,-43.58 61.43,-38.9"/>
<text text-anchor="middle" x="87.95" y="-58.2" font-family="Times,serif" font-size="14.00">c</text>
</g>
<!-- inf&#45;ten&#45;&gt;S -->
<g id="edge8" class="edge">
<title>inf&#45;ten&#45;&gt;S</title>
<path fill="none" stroke="black" d="M116.25,-88.65C115.83,-76.52 115.26,-60.02 114.78,-46.12"/>
<polygon fill="black" stroke="black" points="118.28,-45.99 114.43,-36.11 111.28,-46.23 118.28,-45.99"/>
<text text-anchor="middle" x="117.57" y="-58.2" font-family="Times,serif" font-size="14.00">s</text>
</g>
</g>
</svg>
