<?xml version="1.0" encoding="UTF-8" standalone="no"?>
<!DOCTYPE svg PUBLIC "-//W3C//DTD SVG 1.1//EN"
 "http://www.w3.org/Graphics/SVG/1.1/DTD/svg11.dtd">
<!-- Generated by graphviz version 5.0.0 (20220707.2145)
 -->
<!-- Title: G Pages: 1 -->
<svg width="242pt" height="188pt"
 viewBox="0.00 0.00 242.17 188.00" xmlns="http://www.w3.org/2000/svg" xmlns:xlink="http://www.w3.org/1999/xlink">
<g id="graph0" class="graph" transform="scale(1 1) rotate(0) translate(4 184)">
<title>G</title>
<polygon fill="white" stroke="transparent" points="-4,4 -4,-184 238.17,-184 238.17,4 -4,4"/>
<!-- V1 -->
<g id="node1" class="node">
<title>V1</title>
<ellipse fill="none" stroke="black" cx="57.42" cy="-162" rx="27" ry="18"/>
<text text-anchor="middle" x="57.42" y="-157.8" font-family="Times,serif" font-size="14.00">V1</text>
</g>
<!-- take home -->
<g id="node5" class="node">
<title>take home</title>
<polygon fill="none" stroke="black" points="142.34,-108 68.5,-108 68.5,-72 142.34,-72 142.34,-108"/>
<text text-anchor="middle" x="105.42" y="-85.8" font-family="Times,serif" font-size="14.00">take home</text>
</g>
<!-- V1&#45;&gt;take home -->
<g id="edge1" class="edge">
<title>V1&#45;&gt;take home</title>
<path fill="none" stroke="black" d="M68.31,-145.12C74.07,-136.72 81.29,-126.2 87.82,-116.67"/>
<polygon fill="black" stroke="black" points="90.8,-118.52 93.56,-108.29 85.02,-114.56 90.8,-118.52"/>
</g>
<!-- Alice shirt -->
<g id="node2" class="node">
<title>Alice shirt</title>
<ellipse fill="none" stroke="black" cx="154.42" cy="-162" rx="51.56" ry="18"/>
<text text-anchor="middle" x="154.42" y="-157.8" font-family="Times,serif" font-size="14.00">Alice shirt</text>
</g>
<!-- Alice shirt&#45;&gt;take home -->
<g id="edge2" class="edge">
<title>Alice shirt&#45;&gt;take home</title>
<path fill="none" stroke="black" d="M142.81,-144.41C137.06,-136.2 129.99,-126.1 123.55,-116.9"/>
<polygon fill="black" stroke="black" points="126.24,-114.63 117.63,-108.45 120.5,-118.65 126.24,-114.63"/>
</g>
<!-- V1 shirt -->
<g id="node3" class="node">
<title>V1 shirt</title>
<ellipse fill="none" stroke="black" cx="42.42" cy="-18" rx="42.34" ry="18"/>
<text text-anchor="middle" x="42.42" y="-13.8" font-family="Times,serif" font-size="14.00">V1 shirt</text>
</g>
<!-- Alice 50 EUR -->
<g id="node4" class="node">
<title>Alice 50 EUR</title>
<ellipse fill="none" stroke="black" cx="168.42" cy="-18" rx="66" ry="18"/>
<text text-anchor="middle" x="168.42" y="-13.8" font-family="Times,serif" font-size="14.00">Alice 50 EUR</text>
</g>
<!-- take home&#45;&gt;V1 shirt -->
<g id="edge3" class="edge">
<title>take home&#45;&gt;V1 shirt</title>
<path fill="none" stroke="black" d="M89.85,-71.7C81.99,-62.97 72.34,-52.24 63.8,-42.75"/>
<polygon fill="black" stroke="black" points="66.24,-40.24 56.95,-35.14 61.04,-44.92 66.24,-40.24"/>
</g>
<!-- take home&#45;&gt;Alice 50 EUR -->
<g id="edge4" class="edge">
<title>take home&#45;&gt;Alice 50 EUR</title>
<path fill="none" stroke="black" d="M120.99,-71.7C128.74,-63.09 138.22,-52.55 146.67,-43.17"/>
<polygon fill="black" stroke="black" points="149.37,-45.4 153.46,-35.62 144.17,-40.71 149.37,-45.4"/>
</g>
</g>
</svg>
