<?xml version="1.0" encoding="UTF-8" standalone="no"?>
<!DOCTYPE svg PUBLIC "-//W3C//DTD SVG 1.1//EN"
 "http://www.w3.org/Graphics/SVG/1.1/DTD/svg11.dtd">
<!-- Generated by graphviz version 5.0.0 (20220707.2145)
 -->
<!-- Title: G Pages: 1 -->
<svg width="481pt" height="332pt"
 viewBox="0.00 0.00 481.39 332.00" xmlns="http://www.w3.org/2000/svg" xmlns:xlink="http://www.w3.org/1999/xlink">
<g id="graph0" class="graph" transform="scale(1 1) rotate(0) translate(4 328)">
<title>G</title>
<polygon fill="white" stroke="transparent" points="-4,4 -4,-328 477.39,-328 477.39,4 -4,4"/>
<!-- V1 -->
<g id="node1" class="node">
<title>V1</title>
<ellipse fill="none" stroke="black" cx="106.76" cy="-306" rx="27" ry="18"/>
<text text-anchor="middle" x="106.76" y="-301.8" font-family="Times,serif" font-size="14.00">V1</text>
</g>
<!-- shirt to take home -->
<g id="node9" class="node">
<title>shirt to take home</title>
<polygon fill="none" stroke="black" points="212.96,-252 96.56,-252 96.56,-216 212.96,-216 212.96,-252"/>
<text text-anchor="middle" x="154.76" y="-229.8" font-family="Times,serif" font-size="14.00">shirt to take home</text>
</g>
<!-- V1&#45;&gt;shirt to take home -->
<g id="edge1" class="edge">
<title>V1&#45;&gt;shirt to take home</title>
<path fill="none" stroke="black" d="M117.65,-289.12C123.41,-280.72 130.63,-270.2 137.16,-260.67"/>
<polygon fill="black" stroke="black" points="140.14,-262.52 142.91,-252.29 134.36,-258.56 140.14,-262.52"/>
</g>
<!-- Alice shirt -->
<g id="node2" class="node">
<title>Alice shirt</title>
<ellipse fill="none" stroke="black" cx="203.76" cy="-306" rx="51.56" ry="18"/>
<text text-anchor="middle" x="203.76" y="-301.8" font-family="Times,serif" font-size="14.00">Alice shirt</text>
</g>
<!-- Alice shirt&#45;&gt;shirt to take home -->
<g id="edge2" class="edge">
<title>Alice shirt&#45;&gt;shirt to take home</title>
<path fill="none" stroke="black" d="M192.15,-288.41C186.4,-280.2 179.33,-270.1 172.89,-260.9"/>
<polygon fill="black" stroke="black" points="175.58,-258.63 166.98,-252.45 169.84,-262.65 175.58,-258.63"/>
</g>
<!-- cashier 1 -->
<g id="node3" class="node">
<title>cashier 1</title>
<ellipse fill="none" stroke="black" cx="346.76" cy="-162" rx="45.75" ry="18"/>
<text text-anchor="middle" x="346.76" y="-157.8" font-family="Times,serif" font-size="14.00">cashier 1</text>
</g>
<!-- Alice pays take home -->
<g id="node11" class="node">
<title>Alice pays take home</title>
<polygon fill="none" stroke="black" points="393.16,-108 256.36,-108 256.36,-72 393.16,-72 393.16,-108"/>
<text text-anchor="middle" x="324.76" y="-85.8" font-family="Times,serif" font-size="14.00">Alice pays take home</text>
</g>
<!-- cashier 1&#45;&gt;Alice pays take home -->
<g id="edge8" class="edge">
<title>cashier 1&#45;&gt;Alice pays take home</title>
<path fill="none" stroke="black" d="M341.44,-144.05C338.99,-136.26 336.02,-126.82 333.27,-118.08"/>
<polygon fill="black" stroke="black" points="336.53,-116.77 330.19,-108.28 329.85,-118.86 336.53,-116.77"/>
</g>
<!-- V1 shirt -->
<g id="node4" class="node">
<title>V1 shirt</title>
<ellipse fill="none" stroke="black" cx="91.76" cy="-162" rx="42.34" ry="18"/>
<text text-anchor="middle" x="91.76" y="-157.8" font-family="Times,serif" font-size="14.00">V1 shirt</text>
</g>
<!-- V1 packs shirt -->
<g id="node10" class="node">
<title>V1 packs shirt</title>
<polygon fill="none" stroke="black" points="140.14,-108 43.39,-108 43.39,-72 140.14,-72 140.14,-108"/>
<text text-anchor="middle" x="91.76" y="-85.8" font-family="Times,serif" font-size="14.00">V1 packs shirt</text>
</g>
<!-- V1 shirt&#45;&gt;V1 packs shirt -->
<g id="edge5" class="edge">
<title>V1 shirt&#45;&gt;V1 packs shirt</title>
<path fill="none" stroke="black" d="M91.76,-143.7C91.76,-135.98 91.76,-126.71 91.76,-118.11"/>
<polygon fill="black" stroke="black" points="95.26,-118.1 91.76,-108.1 88.26,-118.1 95.26,-118.1"/>
</g>
<!-- Alice 50 EUR -->
<g id="node5" class="node">
<title>Alice 50 EUR</title>
<ellipse fill="none" stroke="black" cx="217.76" cy="-162" rx="66" ry="18"/>
<text text-anchor="middle" x="217.76" y="-157.8" font-family="Times,serif" font-size="14.00">Alice 50 EUR</text>
</g>
<!-- Alice 50 EUR&#45;&gt;Alice pays take home -->
<g id="edge7" class="edge">
<title>Alice 50 EUR&#45;&gt;Alice pays take home</title>
<path fill="none" stroke="black" d="M242.04,-145.12C256.3,-135.79 274.54,-123.85 290.27,-113.56"/>
<polygon fill="black" stroke="black" points="292.26,-116.45 298.71,-108.04 288.42,-110.59 292.26,-116.45"/>
</g>
<!-- V1 with packed shirt -->
<g id="node6" class="node">
<title>V1 with packed shirt</title>
<ellipse fill="none" stroke="black" cx="91.76" cy="-18" rx="91.53" ry="18"/>
<text text-anchor="middle" x="91.76" y="-13.8" font-family="Times,serif" font-size="14.00">V1 with packed shirt</text>
</g>
<!-- Alice receipt -->
<g id="node7" class="node">
<title>Alice receipt</title>
<ellipse fill="none" stroke="black" cx="303.76" cy="-18" rx="60.76" ry="18"/>
<text text-anchor="middle" x="303.76" y="-13.8" font-family="Times,serif" font-size="14.00">Alice receipt</text>
</g>
<!-- cashier 2 -->
<g id="node8" class="node">
<title>cashier 2</title>
<ellipse fill="none" stroke="black" cx="427.76" cy="-18" rx="45.75" ry="18"/>
<text text-anchor="middle" x="427.76" y="-13.8" font-family="Times,serif" font-size="14.00">cashier 2</text>
</g>
<!-- shirt to take home&#45;&gt;V1 shirt -->
<g id="edge3" class="edge">
<title>shirt to take home&#45;&gt;V1 shirt</title>
<path fill="none" stroke="black" d="M139.19,-215.7C131.33,-206.97 121.68,-196.24 113.14,-186.75"/>
<polygon fill="black" stroke="black" points="115.58,-184.24 106.29,-179.14 110.38,-188.92 115.58,-184.24"/>
</g>
<!-- shirt to take home&#45;&gt;Alice 50 EUR -->
<g id="edge4" class="edge">
<title>shirt to take home&#45;&gt;Alice 50 EUR</title>
<path fill="none" stroke="black" d="M170.34,-215.7C178.08,-207.09 187.56,-196.55 196.01,-187.17"/>
<polygon fill="black" stroke="black" points="198.71,-189.4 202.8,-179.62 193.51,-184.71 198.71,-189.4"/>
</g>
<!-- V1 packs shirt&#45;&gt;V1 with packed shirt -->
<g id="edge6" class="edge">
<title>V1 packs shirt&#45;&gt;V1 with packed shirt</title>
<path fill="none" stroke="black" d="M91.76,-71.7C91.76,-63.98 91.76,-54.71 91.76,-46.11"/>
<polygon fill="black" stroke="black" points="95.26,-46.1 91.76,-36.1 88.26,-46.1 95.26,-46.1"/>
</g>
<!-- Alice pays take home&#45;&gt;Alice receipt -->
<g id="edge9" class="edge">
<title>Alice pays take home&#45;&gt;Alice receipt</title>
<path fill="none" stroke="black" d="M319.57,-71.7C317.23,-63.9 314.42,-54.51 311.81,-45.83"/>
<polygon fill="black" stroke="black" points="315.12,-44.68 308.89,-36.1 308.41,-46.69 315.12,-44.68"/>
</g>
<!-- Alice pays take home&#45;&gt;cashier 2 -->
<g id="edge10" class="edge">
<title>Alice pays take home&#45;&gt;cashier 2</title>
<path fill="none" stroke="black" d="M349.96,-71.88C364.3,-62.13 382.35,-49.86 397.46,-39.59"/>
<polygon fill="black" stroke="black" points="399.66,-42.33 405.97,-33.81 395.73,-36.54 399.66,-42.33"/>
</g>
</g>
</svg>
