<?xml version="1.0" encoding="UTF-8" standalone="no"?>
<!DOCTYPE svg PUBLIC "-//W3C//DTD SVG 1.1//EN"
 "http://www.w3.org/Graphics/SVG/1.1/DTD/svg11.dtd">
<!-- Generated by graphviz version 5.0.0 (20220707.2145)
 -->
<!-- Title: G Pages: 1 -->
<svg width="425pt" height="332pt"
 viewBox="0.00 0.00 425.39 332.00" xmlns="http://www.w3.org/2000/svg" xmlns:xlink="http://www.w3.org/1999/xlink">
<g id="graph0" class="graph" transform="scale(1 1) rotate(0) translate(4 328)">
<title>G</title>
<polygon fill="white" stroke="transparent" points="-4,4 -4,-328 421.39,-328 421.39,4 -4,4"/>
<!-- V1 -->
<g id="node1" class="node">
<title>V1</title>
<ellipse fill="none" stroke="black" cx="117.76" cy="-306" rx="27" ry="18"/>
<text text-anchor="middle" x="117.76" y="-301.8" font-family="Times,serif" font-size="14.00">V1</text>
</g>
<!-- shirt to take home -->
<g id="node8" class="node">
<title>shirt to take home</title>
<polygon fill="none" stroke="black" points="223.96,-252 107.56,-252 107.56,-216 223.96,-216 223.96,-252"/>
<text text-anchor="middle" x="165.76" y="-229.8" font-family="Times,serif" font-size="14.00">shirt to take home</text>
</g>
<!-- V1&#45;&gt;shirt to take home -->
<g id="edge1" class="edge">
<title>V1&#45;&gt;shirt to take home</title>
<path fill="none" stroke="black" d="M128.65,-289.12C134.41,-280.72 141.63,-270.2 148.16,-260.67"/>
<polygon fill="black" stroke="black" points="151.14,-262.52 153.91,-252.29 145.36,-258.56 151.14,-262.52"/>
</g>
<!-- Alice shirt -->
<g id="node2" class="node">
<title>Alice shirt</title>
<ellipse fill="none" stroke="black" cx="214.76" cy="-306" rx="51.56" ry="18"/>
<text text-anchor="middle" x="214.76" y="-301.8" font-family="Times,serif" font-size="14.00">Alice shirt</text>
</g>
<!-- Alice shirt&#45;&gt;shirt to take home -->
<g id="edge2" class="edge">
<title>Alice shirt&#45;&gt;shirt to take home</title>
<path fill="none" stroke="black" d="M203.15,-288.41C197.4,-280.2 190.33,-270.1 183.89,-260.9"/>
<polygon fill="black" stroke="black" points="186.58,-258.63 177.98,-252.45 180.84,-262.65 186.58,-258.63"/>
</g>
<!-- cashier -->
<g id="node3" class="node">
<title>cashier</title>
<ellipse fill="none" stroke="black" cx="239.76" cy="-18" rx="38.26" ry="18"/>
<text text-anchor="middle" x="239.76" y="-13.8" font-family="Times,serif" font-size="14.00">cashier</text>
</g>
<!-- Alice pays take home -->
<g id="node10" class="node">
<title>Alice pays take home</title>
<polygon fill="none" stroke="black" points="308.16,-108 171.36,-108 171.36,-72 308.16,-72 308.16,-108"/>
<text text-anchor="middle" x="239.76" y="-85.8" font-family="Times,serif" font-size="14.00">Alice pays take home</text>
</g>
<!-- cashier&#45;&gt;Alice pays take home -->
<g id="edge8" class="edge">
<title>cashier&#45;&gt;Alice pays take home</title>
<path fill="none" stroke="black" d="M245.66,-36.1C246.46,-43.79 246.7,-53.05 246.37,-61.67"/>
<polygon fill="black" stroke="black" points="242.87,-61.48 245.68,-71.7 249.85,-61.96 242.87,-61.48"/>
</g>
<!-- V1 shirt -->
<g id="node4" class="node">
<title>V1 shirt</title>
<ellipse fill="none" stroke="black" cx="102.76" cy="-162" rx="42.34" ry="18"/>
<text text-anchor="middle" x="102.76" y="-157.8" font-family="Times,serif" font-size="14.00">V1 shirt</text>
</g>
<!-- V1 packs shirt -->
<g id="node9" class="node">
<title>V1 packs shirt</title>
<polygon fill="none" stroke="black" points="147.14,-108 50.39,-108 50.39,-72 147.14,-72 147.14,-108"/>
<text text-anchor="middle" x="98.76" y="-85.8" font-family="Times,serif" font-size="14.00">V1 packs shirt</text>
</g>
<!-- V1 shirt&#45;&gt;V1 packs shirt -->
<g id="edge5" class="edge">
<title>V1 shirt&#45;&gt;V1 packs shirt</title>
<path fill="none" stroke="black" d="M101.77,-143.7C101.33,-135.98 100.8,-126.71 100.31,-118.11"/>
<polygon fill="black" stroke="black" points="103.8,-117.89 99.74,-108.1 96.82,-118.29 103.8,-117.89"/>
</g>
<!-- Alice 50 EUR -->
<g id="node5" class="node">
<title>Alice 50 EUR</title>
<ellipse fill="none" stroke="black" cx="233.76" cy="-162" rx="66" ry="18"/>
<text text-anchor="middle" x="233.76" y="-157.8" font-family="Times,serif" font-size="14.00">Alice 50 EUR</text>
</g>
<!-- Alice 50 EUR&#45;&gt;Alice pays take home -->
<g id="edge7" class="edge">
<title>Alice 50 EUR&#45;&gt;Alice pays take home</title>
<path fill="none" stroke="black" d="M235.25,-143.7C235.91,-135.98 236.7,-126.71 237.44,-118.11"/>
<polygon fill="black" stroke="black" points="240.93,-118.37 238.3,-108.1 233.96,-117.77 240.93,-118.37"/>
</g>
<!-- V1 with packed shirt -->
<g id="node6" class="node">
<title>V1 with packed shirt</title>
<ellipse fill="none" stroke="black" cx="91.76" cy="-18" rx="91.53" ry="18"/>
<text text-anchor="middle" x="91.76" y="-13.8" font-family="Times,serif" font-size="14.00">V1 with packed shirt</text>
</g>
<!-- Alice receipt -->
<g id="node7" class="node">
<title>Alice receipt</title>
<ellipse fill="none" stroke="black" cx="356.76" cy="-18" rx="60.76" ry="18"/>
<text text-anchor="middle" x="356.76" y="-13.8" font-family="Times,serif" font-size="14.00">Alice receipt</text>
</g>
<!-- shirt to take home&#45;&gt;V1 shirt -->
<g id="edge3" class="edge">
<title>shirt to take home&#45;&gt;V1 shirt</title>
<path fill="none" stroke="black" d="M150.19,-215.7C142.33,-206.97 132.68,-196.24 124.14,-186.75"/>
<polygon fill="black" stroke="black" points="126.58,-184.24 117.29,-179.14 121.38,-188.92 126.58,-184.24"/>
</g>
<!-- shirt to take home&#45;&gt;Alice 50 EUR -->
<g id="edge4" class="edge">
<title>shirt to take home&#45;&gt;Alice 50 EUR</title>
<path fill="none" stroke="black" d="M182.57,-215.7C191.01,-207.01 201.37,-196.34 210.56,-186.89"/>
<polygon fill="black" stroke="black" points="213.16,-189.23 217.62,-179.62 208.14,-184.36 213.16,-189.23"/>
</g>
<!-- V1 packs shirt&#45;&gt;V1 with packed shirt -->
<g id="edge6" class="edge">
<title>V1 packs shirt&#45;&gt;V1 with packed shirt</title>
<path fill="none" stroke="black" d="M97.03,-71.7C96.26,-63.98 95.33,-54.71 94.47,-46.11"/>
<polygon fill="black" stroke="black" points="97.95,-45.71 93.47,-36.1 90.99,-46.4 97.95,-45.71"/>
</g>
<!-- Alice pays take home&#45;&gt;cashier -->
<g id="edge10" class="edge">
<title>Alice pays take home&#45;&gt;cashier</title>
<path fill="none" stroke="black" d="M233.85,-71.7C233.05,-63.98 232.82,-54.71 233.17,-46.11"/>
<polygon fill="black" stroke="black" points="236.66,-46.32 233.87,-36.1 229.68,-45.84 236.66,-46.32"/>
</g>
<!-- Alice pays take home&#45;&gt;Alice receipt -->
<g id="edge9" class="edge">
<title>Alice pays take home&#45;&gt;Alice receipt</title>
<path fill="none" stroke="black" d="M268.38,-71.88C284.63,-62.16 305.08,-49.92 322.21,-39.67"/>
<polygon fill="black" stroke="black" points="324.05,-42.65 330.83,-34.51 320.45,-36.64 324.05,-42.65"/>
</g>
</g>
</svg>
