<?xml version="1.0" encoding="UTF-8" standalone="no"?>
<!DOCTYPE svg PUBLIC "-//W3C//DTD SVG 1.1//EN"
 "http://www.w3.org/Graphics/SVG/1.1/DTD/svg11.dtd">
<!-- Generated by graphviz version 5.0.0 (20220707.2145)
 -->
<!-- Title: G Pages: 1 -->
<svg width="184pt" height="222pt"
 viewBox="0.00 0.00 183.53 221.60" xmlns="http://www.w3.org/2000/svg" xmlns:xlink="http://www.w3.org/1999/xlink">
<g id="graph0" class="graph" transform="scale(1 1) rotate(0) translate(4 217.6)">
<title>G</title>
<polygon fill="white" stroke="transparent" points="-4,4 -4,-217.6 179.53,-217.6 179.53,4 -4,4"/>
<!-- vendor&#45;available -->
<g id="node1" class="node">
<title>vendor&#45;available</title>
<ellipse fill="none" stroke="black" cx="27" cy="-195.6" rx="27" ry="18"/>
<text text-anchor="middle" x="27" y="-191.4" font-family="Times,serif" font-size="14.00">V1</text>
</g>
<!-- take&#45;home -->
<g id="node5" class="node">
<title>take&#45;home</title>
<polygon fill="none" stroke="black" points="133.19,-124.8 16.81,-124.8 16.81,-88.8 133.19,-88.8 133.19,-124.8"/>
<text text-anchor="middle" x="75" y="-102.6" font-family="Times,serif" font-size="14.00">item to take home</text>
</g>
<!-- vendor&#45;available&#45;&gt;take&#45;home -->
<g id="edge1" class="edge">
<title>vendor&#45;available&#45;&gt;take&#45;home</title>
<path fill="none" stroke="black" d="M36.03,-178.27C42.93,-165.79 52.59,-148.32 60.57,-133.9"/>
<polygon fill="black" stroke="black" points="63.74,-135.39 65.52,-124.94 57.62,-132 63.74,-135.39"/>
<text text-anchor="middle" x="59.5" y="-147" font-family="Times,serif" font-size="14.00">y</text>
</g>
<!-- client&#45;with&#45;item -->
<g id="node2" class="node">
<title>client&#45;with&#45;item</title>
<ellipse fill="none" stroke="black" cx="124" cy="-195.6" rx="51.56" ry="18"/>
<text text-anchor="middle" x="124" y="-191.4" font-family="Times,serif" font-size="14.00">Alice shirt</text>
</g>
<!-- client&#45;with&#45;item&#45;&gt;take&#45;home -->
<g id="edge2" class="edge">
<title>client&#45;with&#45;item&#45;&gt;take&#45;home</title>
<path fill="none" stroke="black" d="M114.55,-177.86C107.53,-165.42 97.8,-148.19 89.76,-133.94"/>
<polygon fill="black" stroke="black" points="92.72,-132.07 84.75,-125.08 86.62,-135.51 92.72,-132.07"/>
<text text-anchor="middle" x="117.77" y="-147" font-family="Times,serif" font-size="14.00">(y, z)</text>
</g>
<!-- vendor&#45;with&#45;item -->
<g id="node3" class="node">
<title>vendor&#45;with&#45;item</title>
<ellipse fill="none" stroke="black" cx="39" cy="-18" rx="27" ry="18"/>
</g>
<!-- client&#45;with&#45;money -->
<g id="node4" class="node">
<title>client&#45;with&#45;money</title>
<ellipse fill="none" stroke="black" cx="111" cy="-18" rx="27" ry="18"/>
</g>
<!-- take&#45;home&#45;&gt;vendor&#45;with&#45;item -->
<g id="edge3" class="edge">
<title>take&#45;home&#45;&gt;vendor&#45;with&#45;item</title>
<path fill="none" stroke="black" d="M67.27,-88.77C64.73,-83.08 61.93,-76.69 59.46,-70.8 56.01,-62.56 52.38,-53.52 49.15,-45.33"/>
<polygon fill="black" stroke="black" points="52.36,-43.91 45.46,-35.87 45.84,-46.46 52.36,-43.91"/>
<text text-anchor="middle" x="74.77" y="-58.2" font-family="Times,serif" font-size="14.00">(y, z)</text>
</g>
<!-- take&#45;home&#45;&gt;client&#45;with&#45;money -->
<g id="edge4" class="edge">
<title>take&#45;home&#45;&gt;client&#45;with&#45;money</title>
<path fill="none" stroke="black" d="M82.11,-88.65C87.26,-76.25 94.3,-59.26 100.15,-45.17"/>
<polygon fill="black" stroke="black" points="103.55,-46.1 104.15,-35.52 97.08,-43.42 103.55,-46.1"/>
<text text-anchor="middle" x="113.11" y="-58.2" font-family="Times,serif" font-size="14.00">(x, m)</text>
</g>
</g>
</svg>
